<?xml version="1.0" encoding="UTF-8"?>
<!DOCTYPE svg PUBLIC "-//W3C//DTD SVG 1.1//EN" "http://www.w3.org/Graphics/SVG/1.1/DTD/svg11.dtd">
<svg xmlns="http://www.w3.org/2000/svg" version="1.1" width="658px" height="697px" style="shape-rendering:geometricPrecision; text-rendering:geometricPrecision; image-rendering:optimizeQuality; fill-rule:evenodd; clip-rule:evenodd" xmlns:xlink="http://www.w3.org/1999/xlink">
<g><path style="opacity:0.995" fill="#0e1117" d="M 293.5,-0.5 C 316.833,-0.5 340.167,-0.5 363.5,-0.5C 475.279,16.4786 558.779,74.1452 614,172.5C 638.56,218.999 653.06,268.333 657.5,320.5C 657.5,338.5 657.5,356.5 657.5,374.5C 647.996,482.032 600.996,568.865 516.5,635C 467.746,670.197 413.413,690.697 353.5,696.5C 336.833,696.5 320.167,696.5 303.5,696.5C 187.198,682.288 100.364,624.288 43,522.5C 18.4403,476.001 3.94032,426.667 -0.5,374.5C -0.5,356.5 -0.5,338.5 -0.5,320.5C 8.67955,216.963 53.0129,132.13 132.5,66C 180.178,29.4991 233.845,7.33239 293.5,-0.5 Z"/></g>
<g><path style="opacity:1" fill="#00539c" d="M 347.5,33.5 C 369.221,58.9285 384.721,87.9285 394,120.5C 402.144,157.393 398.477,193.06 383,227.5C 370.291,255.254 356.291,282.254 341,308.5C 328.858,330.073 320.858,353.073 317,377.5C 315.113,408.164 322.78,436.164 340,461.5C 343.465,465.967 347.298,470.133 351.5,474C 370.554,488.714 388.721,504.548 406,521.5C 410.246,526.991 414.246,532.658 418,538.5C 423.534,576.271 409.034,603.105 374.5,619C 316.924,636.687 265.257,626.021 219.5,587C 187.05,556.714 167.216,519.547 160,475.5C 154.328,409.189 167.328,346.855 199,288.5C 216.566,260.585 232.899,231.918 248,202.5C 254.788,184.825 258.288,166.492 258.5,147.5C 264.912,154.536 268.745,162.869 270,172.5C 271.299,189.649 270.299,206.649 267,223.5C 263.562,239.45 259.562,255.117 255,270.5C 282.217,235.95 307.883,200.283 332,163.5C 340.96,148.247 348.293,132.247 354,115.5C 362.855,87.1372 360.689,59.8038 347.5,33.5 Z"/></g>
<g><path style="opacity:1" fill="#5392d1" d="M 446.5,333.5 C 446.5,332.833 446.833,332.5 447.5,332.5C 472.399,359.285 489.232,390.618 498,426.5C 503.363,458.266 499.696,488.932 487,518.5C 474.227,546.637 457.061,570.971 435.5,591.5C 445.214,568.574 444.714,545.908 434,523.5C 429.726,516.228 425.059,509.228 420,502.5C 406.899,488.226 392.399,475.726 376.5,465C 367.265,456.435 358.765,447.268 351,437.5C 332.947,410.567 330.614,382.234 344,352.5C 348.632,343.186 353.299,333.853 358,324.5C 377.945,292.614 395.278,259.28 410,224.5C 414.417,212.582 418.417,200.582 422,188.5C 437.794,214.933 442.461,243.266 436,273.5C 433.466,281.435 431.133,289.435 429,297.5C 417.676,321.139 409.343,345.805 404,371.5C 402.421,397.342 409.754,420.342 426,440.5C 431.801,447.302 437.968,453.802 444.5,460C 452.761,456.577 459.594,451.077 465,443.5C 474.132,428.385 476.798,412.052 473,394.5C 467.438,372.714 458.605,352.38 446.5,333.5 Z"/></g>
<g><path style="opacity:1" fill="#365c83" d="M 447.5,332.5 C 446.833,332.5 446.5,332.833 446.5,333.5C 444.584,332.335 443.751,330.668 444,328.5C 445.376,329.705 446.542,331.038 447.5,332.5 Z"/></g>
</svg>
