<svg
    width="1920"
    height="1081"
    viewBox="0 0 1920 1081"
    fill="none"
    xmlns="http://www.w3.org/2000/svg"
    class=""
  >
  <g>
    <g clip-path="url(#clip0_7037_1286)">
      <path
        d="M1418.33 285.21L1417.81 285.5H1390.71L1379.48 292.3H1378.33L1389.53 285.51H1363.03L1352.53 292.31H1351.38L1361.85 285.52H1335.35L1325.58 292.31H1324.43L1334.17 285.52H1307.67L1298.63 292.31H1297.48L1306.49 285.52H1280L1271.69 292.31H1270.54L1278.82 285.52H1252.33L1244.75 292.31H1243.6L1251.15 285.52H1224.66L1217.81 292.31H1216.66L1223.48 285.52H1197L1190.88 292.31H1189.73L1195.82 285.53H1169.34L1163.95 292.32H1162.8L1168.16 285.54H1141.69L1137.03 292.33H1135.88L1140.51 285.55H1114.04L1110.11 292.34H1108.96L1112.86 285.56H1086.39L1083.18 292.35H1082.03L1085.2 285.57H1058.74L1056.26 292.36H1055.11L1057.56 285.58H1031.1L1029.35 292.37H1028.2L1029.92 285.59H1003.46L1002.44 292.38H1001.29L1002.28 285.6H975.83L975.54 292.39H974.39L974.65 285.61H948.2L948.63 292.4H947.48L947.02 285.62H920.57L921.73 292.41H920.58L919.39 285.63H892.95L894.84 292.41H893.69L891.77 285.63H865.33L867.94 292.41H866.79L864.15 285.63H837.71L841.05 292.41H839.9L836.53 285.63H810.1L814.17 292.41H813.02L808.92 285.63H782.49L787.28 292.41H786.13L781.31 285.63H754.89L760.41 292.41H759.26L753.71 285.64H727.29L733.53 292.42H732.38L726.1 285.65H699.68L706.65 292.43H705.5L698.5 285.66H672.09L679.79 292.46H678.64L670.91 285.69H644.5L652.93 292.47H651.78L643.33 285.7H616.92L626.07 292.47H624.92L615.74 285.7H589.34L599.21 292.48H598.06L588.16 285.71H561.76L572.36 292.49H571.21L560.58 285.72H534.18L545.51 292.49H544.36L533.01 285.72H506.03L505.51 285.43H532.52L520.77 278.42H493.02L492.47 278.12H520.25L507.82 270.7H479.27L478.68 270.38H507.27L494.09 262.51H464.68L464.06 262.17H493.51L479.51 253.81H449.19L448.53 253.45H478.89L463.99 244.56H432.7L432 244.18H463.33L447.45 234.7H415.13L414.38 234.29H446.75L429.78 224.16H396.35L395.55 223.72H429.02L410.85 212.87H376.24L375.38 212.4H410.04L390.54 200.75L354.66 200.77L353.73 200.25L389.66 200.23L368.67 187.71L331.43 187.73L330.43 187.17L367.73 187.15L345.08 173.64L306.37 173.66L305.29 173.05L344.06 173.03L319.54 158.4L279.24 158.42L278.07 157.76L318.44 157.74L291.81 141.86L249.78 141.89L248.51 141.18L290.62 141.15L261.59 123.84L217.67 123.87L216.28 123.09L260.28 123.06L228.52 104.12L182.54 104.15L181.02 103.29L227.09 103.26L192.19 82.4502L143.95 82.4902L142.27 81.5502L190.61 81.5102L152.09 58.5302L101.35 58.5702L99.49 57.5302L150.34 57.4902L107.59 31.9902L54.07 32.0402L52 30.8802L105.64 30.8302L56.85 1.73022H59.32L107.98 30.8302L160.46 30.7802L114.78 1.67023H117.25L162.8 30.7802L215.3 30.7302L172.72 1.61023H175.19L217.63 30.7302L270.14 30.6802L230.68 1.56024H233.16L272.49 30.6802L325.01 30.6302L288.66 1.50024H291.14L327.36 30.6302L379.9 30.5802L346.66 1.44025H349.14L382.24 30.5802L434.79 30.5302L404.67 1.39023H407.15L437.14 30.5302L489.71 30.4802L462.71 1.33023H465.19L492.06 30.4802L544.64 30.4302L520.76 1.27023H523.24L546.99 30.4302L599.58 30.3802L578.82 1.21024H581.3L601.93 30.3702L654.54 30.3202L636.9 1.15024H639.38L656.89 30.3202L709.51 30.2702L695 1.09024H697.48L711.86 30.2702L764.5 30.2202L753.11 1.03024H755.59L766.84 30.2102L819.49 30.1602L811.23 0.970245H813.71L821.84 30.1602L874.51 30.1102L869.38 0.910248H871.86L876.86 30.1102L929.54 30.0602L927.54 0.85022H930.02L931.88 30.0502L984.57 30.0002L985.71 0.790222H988.19L986.92 30.0002L1039.63 29.9502L1043.9 0.730225H1046.39L1041.99 29.9502L1094.71 29.9002L1102.12 0.670227H1104.61L1097.07 29.8902L1149.81 29.8402L1160.36 0.610229H1162.85L1152.17 29.8402L1204.92 29.7902L1218.61 0.550232H1221.1L1207.28 29.7902L1260.05 29.7402L1276.88 0.490234H1279.37L1262.41 29.7402L1315.19 29.6902L1335.16 0.440247H1337.65L1317.54 29.6902L1370.33 29.6402L1393.45 0.380249H1395.94L1372.69 29.6402L1425.5 29.5902L1451.76 0.320221H1454.25L1427.85 29.5902L1480.67 29.5402L1510.08 0.260223H1512.57L1483.02 29.5302L1535.86 29.4802L1568.42 0.200226H1570.91L1538.21 29.4802L1591.06 29.4302L1626.78 0.140228H1629.27L1593.42 29.4302L1646.28 29.3802L1685.15 0.0802307H1687.64L1648.63 29.3702L1701.51 29.3202L1743.54 0.0202332H1746.03L1703.87 29.3202L1756.76 29.2702L1801.95 -0.0397644H1804.44L1759.12 29.2702L1812.03 29.2202L1860.37 -0.099762H1862.86L1814.38 29.2102L1868.48 29.1602L1866.42 30.3302L1812.44 30.3802L1769.99 56.0502L1821.26 56.0102L1819.41 57.0602L1768.25 57.1002L1730.01 80.2302L1778.73 80.1902L1777.06 81.1402L1728.44 81.1802L1693.81 102.12L1740.22 102.09L1738.71 102.95L1692.39 102.98L1660.89 122.03L1705.2 122L1703.82 122.78L1659.59 122.81L1630.81 140.22L1673.2 140.19L1671.94 140.91L1629.62 140.94L1603.22 156.91L1643.85 156.89L1642.69 157.55L1602.12 157.57L1577.82 172.27L1616.84 172.25L1615.77 172.86L1576.82 172.88L1554.37 186.45L1591.89 186.43L1590.9 186.99L1553.44 187.01L1532.65 199.58L1568.79 199.56L1567.87 200.08L1531.79 200.1L1512.47 211.78H1547.32L1546.47 212.25H1511.67L1493.68 223.15H1527.33L1526.53 223.59H1492.92L1476.12 233.76H1508.66L1507.91 234.17H1475.42L1459.7 243.69H1491.19L1490.49 244.08H1459.04L1444.3 253.01H1474.81L1474.15 253.37H1443.68L1429.82 261.76H1459.41L1458.79 262.1H1429.24L1416.2 270H1444.92L1444.34 270.32H1415.65L1403.35 277.77H1431.25L1430.7 278.07H1402.83L1391.21 285.11H1418.34L1418.33 285.21ZM1362.3 285.22L1373.13 278.19H1345.88L1335.77 285.22H1362.3ZM1161.86 200.38L1126.63 200.4L1121.12 212.06H1155.15L1161.86 200.38ZM1156.67 212.04H1190.7L1198.67 200.36L1163.44 200.38L1156.67 212.05V212.04ZM1125.06 200.39L1089.84 200.41L1085.58 212.07H1119.6L1125.06 200.39ZM1088.27 200.41L1053.06 200.43L1050.05 212.09H1084.06L1088.27 200.41ZM1051.49 200.43L1016.28 200.45L1014.52 212.11H1048.53L1051.49 200.43ZM1014.71 200.44L979.51 200.46L979 212.12H1013L1014.7 200.45L1014.71 200.44ZM977.94 200.46L942.75 200.48L943.49 212.14H977.49L977.94 200.47V200.46ZM941.18 200.48L905.99 200.5L907.98 212.15H941.97L941.17 200.48H941.18ZM904.42 200.49L869.24 200.51L872.48 212.16H906.46L904.41 200.49H904.42ZM867.67 200.51L832.5 200.53L836.99 212.18H870.97L867.67 200.51ZM830.93 200.53L795.76 200.55L801.5 212.2H835.47L830.92 200.53H830.93ZM794.19 200.54L759.03 200.56L766.02 212.21H799.99L794.19 200.55V200.54ZM757.46 200.56L722.3 200.58L730.54 212.23H764.5L757.46 200.57V200.56ZM720.74 200.58L685.59 200.6L695.08 212.25H729.04L720.75 200.59L720.74 200.58ZM720.37 200.06L711.45 187.52L674.96 187.54L685.17 200.07L720.37 200.05V200.06ZM721.94 200.06L757.15 200.04L749.57 187.5L713.08 187.52L721.95 200.06H721.94ZM758.72 200.04L793.94 200.02L787.7 187.48L751.2 187.5L758.72 200.04ZM795.5 200.02L830.72 200L825.83 187.46L789.32 187.48L795.5 200.02ZM832.3 200.01L867.53 199.99L863.98 187.45L827.46 187.47L832.3 200.01ZM869.1 199.99L904.33 199.97L902.13 187.43L865.61 187.45L869.1 199.99ZM905.9 199.97L941.14 199.95L940.28 187.4L903.75 187.42L905.9 199.96V199.97ZM942.72 199.96L977.97 199.94L978.46 187.39L941.92 187.41L942.72 199.96ZM979.54 199.94L1014.79 199.92L1016.62 187.37L980.08 187.39L979.54 199.94ZM1016.36 199.92L1051.62 199.9L1054.8 187.35L1018.25 187.37L1016.36 199.92ZM1053.2 199.9L1088.47 199.88L1093 187.33L1056.44 187.35L1053.2 199.9ZM1090.04 199.89L1125.31 199.87L1131.19 187.32L1094.63 187.34L1090.04 199.89ZM1126.88 199.87L1162.16 199.85L1169.38 187.29L1132.81 187.31L1126.88 199.87ZM1163.74 199.85L1199.03 199.83L1207.6 187.27L1171.02 187.29L1163.74 199.85ZM1200.59 199.84L1235.88 199.82L1245.8 187.26L1209.22 187.28L1200.59 199.84ZM1200.24 200.36L1192.22 212.03H1226.26L1235.48 200.35L1200.24 200.37V200.36ZM1191.88 212.51L1184.41 223.38H1217.28L1225.87 212.5H1191.88V212.51ZM1190.37 212.51H1156.39L1150.09 223.39H1182.95L1190.37 212.51ZM1154.87 212.53H1120.89L1115.75 223.41H1148.61L1154.86 212.53H1154.87ZM1119.38 212.54H1085.41L1081.44 223.42H1114.29L1119.38 212.54ZM1083.89 212.56H1049.93L1047.13 223.44H1079.98L1083.9 212.56H1083.89ZM1048.41 212.57H1014.45L1012.81 223.45H1045.65L1048.4 212.57H1048.41ZM1012.94 212.59H978.99L978.52 223.46H1011.36L1012.95 212.59H1012.94ZM977.47 212.6H943.52L944.21 223.47H977.04L977.46 212.6H977.47ZM942.01 212.62H908.07L909.93 223.49H942.76L942.02 212.62H942.01ZM906.56 212.63H872.63L875.65 223.5H908.47L906.56 212.63ZM871.11 212.65H837.18L841.37 223.52H874.19L871.12 212.65H871.11ZM835.67 212.66H801.75L807.1 223.53H839.91L835.67 212.66ZM800.23 212.68H766.31L772.82 223.55H805.62L800.22 212.68H800.23ZM764.8 212.69H730.89L738.56 223.55H771.36L764.8 212.69ZM729.38 212.71H695.47L704.31 223.57H737.1L729.38 212.71ZM693.96 212.72H660.06L670.06 223.58H702.85L693.96 212.72ZM693.56 212.24L684.02 200.59L648.88 200.61L659.61 212.25H693.56V212.24ZM683.6 200.07L673.33 187.54L636.85 187.56L648.4 200.09L683.6 200.07ZM672.87 186.98L661.79 173.45L623.86 173.47L636.33 187L672.87 186.98ZM674.5 186.98L711.05 186.96L701.42 173.43L663.49 173.45L674.51 186.98H674.5ZM712.67 186.96L749.22 186.94L741.04 173.41L703.1 173.43L712.67 186.96ZM750.86 186.94L787.42 186.92L780.69 173.39L742.74 173.41L750.86 186.94ZM789.05 186.92L825.62 186.9L820.34 173.36L782.38 173.38L789.05 186.91V186.92ZM827.25 186.9L863.82 186.88L859.99 173.34L822.03 173.36L827.25 186.9ZM865.45 186.88L902.03 186.86L899.65 173.32L861.68 173.34L865.45 186.88ZM903.66 186.87L940.25 186.85L939.32 173.31L901.34 173.33L903.66 186.87ZM941.88 186.85L978.47 186.83L979 173.29L941.02 173.31L941.88 186.85ZM980.11 186.83L1016.71 186.81L1018.69 173.26L980.7 173.28L980.11 186.82V186.83ZM1018.34 186.81L1054.95 186.79L1058.38 173.24L1020.38 173.26L1018.34 186.81ZM1056.58 186.79L1093.19 186.77L1098.08 173.22L1060.07 173.24L1056.57 186.79H1056.58ZM1094.83 186.77L1131.45 186.75L1137.79 173.2L1099.78 173.22L1094.83 186.77ZM1133.08 186.75L1169.71 186.73L1177.51 173.18L1139.49 173.2L1133.09 186.75H1133.08ZM1171.34 186.74L1207.97 186.72L1217.22 173.16L1179.19 173.18L1171.33 186.73L1171.34 186.74ZM1209.61 186.72L1246.25 186.7L1256.96 173.14L1218.92 173.16L1209.6 186.72H1209.61ZM1247.89 186.7L1284.54 186.68L1296.71 173.12L1258.67 173.14L1247.9 186.7H1247.89ZM1247.44 187.26L1237.46 199.82L1272.76 199.8L1284.03 187.24L1247.44 187.26ZM1237.05 200.34L1227.78 212.01H1261.82L1272.29 200.32L1237.05 200.34ZM1227.39 212.5L1218.75 223.37H1251.63L1261.39 212.49H1227.4L1227.39 212.5ZM1218.39 223.82L1210.33 233.97H1242.11L1251.22 223.81H1218.39V223.82ZM1216.93 223.82H1184.11L1177.14 233.98H1208.92L1216.94 223.82H1216.93ZM1182.64 223.83H1149.82L1143.94 233.99H1175.71L1182.64 223.83ZM1148.36 223.85H1115.55L1110.75 234.01H1142.52L1148.36 223.85ZM1114.08 223.86H1081.27L1077.56 234.02H1109.32L1114.07 223.86H1114.08ZM1079.81 223.88H1047.01L1044.39 234.04H1076.15L1079.81 223.88ZM1045.55 223.89H1012.75L1011.22 234.04H1042.97L1045.54 223.89H1045.55ZM1011.29 223.9H978.5L978.06 234.05H1009.81L1011.29 223.9ZM977.03 223.92H944.24L944.89 234.07H976.63L977.02 223.92H977.03ZM942.79 223.93H910.01L911.74 234.08H943.48L942.79 223.93ZM908.54 223.94H875.77L878.59 234.09H910.32L908.54 223.94ZM874.31 223.96H841.54L845.45 234.11H877.18L874.31 223.96ZM840.08 223.97H807.32L812.31 234.12H844.03L840.08 223.97ZM805.85 223.98H773.09L779.17 234.13H810.89L805.85 223.98ZM771.63 224H738.88L746.05 234.14H777.76L771.63 224ZM737.42 224.01H704.67L712.92 234.15H744.63L737.42 224.01ZM703.21 224.02H670.47L679.81 234.16H711.51L703.21 224.02ZM669.01 224.04H636.27L646.69 234.18H678.39L669.01 224.04ZM668.59 223.59L658.54 212.74H624.65L635.81 223.6H668.59V223.59ZM658.1 212.25L647.31 200.61L612.17 200.63L624.15 212.27H658.09L658.1 212.25ZM646.83 200.09L635.22 187.56L598.75 187.58L611.64 200.11L646.83 200.09ZM634.7 187L622.17 173.47L584.25 173.49L598.16 187.01L634.69 186.99L634.7 187ZM621.61 172.86L608.05 158.22L568.57 158.24L583.63 172.88L621.61 172.86ZM623.3 172.86L661.29 172.84L649.29 158.2L609.8 158.22L623.3 172.86ZM662.99 172.84L700.98 172.82L690.55 158.17L651.05 158.19L662.98 172.83L662.99 172.84ZM702.68 172.82L740.68 172.8L731.82 158.15L692.32 158.17L702.68 172.82ZM742.37 172.8L780.38 172.78L773.09 158.13L733.58 158.15L742.37 172.8ZM782.08 172.78L820.1 172.76L814.38 158.11L774.86 158.13L782.08 172.78ZM821.79 172.76L859.81 172.74L855.66 158.08L816.13 158.1L821.78 172.75L821.79 172.76ZM861.51 172.74L899.54 172.72L896.96 158.06L857.42 158.08L861.5 172.74H861.51ZM901.24 172.72L939.28 172.7L938.28 158.04L898.74 158.06L901.25 172.72H901.24ZM940.98 172.7L979.03 172.68L979.6 158.02L940.05 158.04L940.99 172.7H940.98ZM980.72 172.68L1018.77 172.66L1020.91 157.99L981.35 158.01L980.71 172.67L980.72 172.68ZM1020.47 172.66L1058.53 172.64L1062.25 157.97L1022.68 157.99L1020.47 172.66ZM1060.23 172.64L1098.3 172.62L1103.59 157.95L1064.01 157.97L1060.23 172.64ZM1100 172.62L1138.08 172.6L1144.95 157.93L1105.37 157.95L1100.01 172.62H1100ZM1139.77 172.59L1177.85 172.57L1186.29 157.9L1146.7 157.92L1139.77 172.59ZM1179.56 172.57L1217.65 172.55L1227.67 157.87L1188.07 157.89L1179.56 172.56V172.57ZM1219.35 172.55L1257.45 172.53L1269.05 157.85L1229.44 157.87L1219.35 172.55ZM1259.14 172.53L1297.25 172.51L1310.42 157.83L1270.8 157.85L1259.14 172.53ZM1298.95 172.51L1337.06 172.49L1351.81 157.81L1312.19 157.83L1298.95 172.51ZM1298.4 173.12L1286.17 186.68L1322.82 186.66L1336.45 173.1L1298.4 173.12ZM1285.66 187.24L1274.33 199.8L1309.63 199.78L1322.25 187.22L1285.65 187.24H1285.66ZM1273.86 200.33L1263.33 212H1297.38L1309.11 200.31L1273.86 200.33ZM1262.9 212.48L1253.09 223.35H1285.97L1296.89 212.46H1262.89L1262.9 212.48ZM1252.68 223.81L1243.52 233.96H1275.31L1285.51 223.8H1252.68V223.81ZM1243.15 234.38L1234.58 243.88H1265.35L1274.9 234.37H1243.15V234.38ZM1241.73 234.38H1209.99L1202.44 243.89H1233.2L1241.72 234.38H1241.73ZM1208.57 234.39H1176.83L1170.3 243.9H1201.06L1208.56 234.39H1208.57ZM1175.42 234.41H1143.69L1138.18 243.92H1168.93L1175.41 234.41H1175.42ZM1142.28 234.42H1110.55L1106.06 243.93H1136.81L1142.27 234.42H1142.28ZM1109.13 234.43H1077.41L1073.94 243.94H1104.69L1109.13 234.43ZM1076 234.44H1044.28L1041.83 243.94H1072.57L1075.99 234.44H1076ZM1042.87 234.45H1011.16L1009.73 243.95H1040.47L1042.88 234.45H1042.87ZM1009.74 234.47H978.03L977.62 243.97H1008.35L1009.74 234.47ZM976.62 234.48H944.92L945.53 243.98H976.26L976.63 234.48H976.62ZM943.51 234.49H911.81L913.43 243.99H944.15L943.5 234.49H943.51ZM910.4 234.5H878.71L881.35 244H912.07L910.4 234.5ZM877.3 234.52H845.61L849.27 244.02H879.98L877.3 234.52ZM844.2 234.53H812.52L817.19 244.03H847.9L844.2 234.53ZM811.1 234.54H779.43L785.12 244.04H815.82L811.1 234.54ZM778.02 234.55H746.35L753.06 244.04H783.76L778.03 234.55H778.02ZM744.93 234.57H713.27L720.99 244.06H751.68L744.93 234.57ZM711.86 234.58H680.2L688.94 244.07H719.63L711.86 234.58ZM678.79 234.59H647.14L656.89 244.08H687.57L678.79 234.59ZM645.72 234.6H614.07L624.84 244.09H655.52L645.72 234.6ZM645.28 234.18L634.81 224.05H602.08L613.59 234.19H645.28V234.18ZM634.35 223.6L623.14 212.75H589.25L601.57 223.61H634.35V223.6ZM622.64 212.27L610.61 200.63L575.48 200.65L588.71 212.29H622.65L622.64 212.27ZM610.07 200.11L597.12 187.58L560.65 187.6L574.88 200.13L610.06 200.11H610.07ZM596.54 187.02L582.56 173.5L544.65 173.52L560.01 187.04L596.54 187.02ZM581.94 172.89L566.81 158.25L527.34 158.27L543.97 172.91L581.94 172.89ZM566.13 157.59L549.7 141.69L508.53 141.71L526.59 157.61L566.13 157.59ZM567.89 157.59L607.44 157.57L592.71 141.67L551.53 141.69L567.89 157.59ZM609.2 157.56L648.76 157.54L635.73 141.63L594.54 141.65L609.2 157.55V157.56ZM650.52 157.54L690.08 157.52L678.76 141.61L637.57 141.63L650.53 157.54H650.52ZM691.85 157.52L731.42 157.5L721.8 141.59L680.6 141.61L691.85 157.52ZM733.19 157.49L772.77 157.47L764.85 141.56L723.64 141.58L733.19 157.49ZM774.53 157.47L814.12 157.45L807.91 141.53L766.69 141.55L774.53 157.46V157.47ZM815.89 157.45L855.49 157.43L850.99 141.51L809.76 141.53L815.9 157.45H815.89ZM857.25 157.43L896.85 157.41L894.05 141.49L852.81 141.51L857.24 157.43H857.25ZM898.62 157.4L938.23 157.38L937.14 141.46L895.89 141.48L898.61 157.4H898.62ZM940 157.38L979.62 157.36L980.24 141.43L938.98 141.45L940 157.37V157.38ZM981.39 157.36L1021.02 157.34L1023.35 141.41L982.09 141.43L981.4 157.36H981.39ZM1022.78 157.33L1062.42 157.31L1066.46 141.38L1025.19 141.4L1022.79 157.33H1022.78ZM1064.19 157.31L1103.83 157.29L1109.58 141.36L1068.3 141.38L1064.19 157.31ZM1105.6 157.29L1145.25 157.27L1152.71 141.33L1111.42 141.35L1105.6 157.28V157.29ZM1147.02 157.26L1186.68 157.24L1195.85 141.3L1154.55 141.32L1147.02 157.26ZM1188.45 157.24L1228.12 157.22L1239 141.28L1197.69 141.3L1188.45 157.24ZM1229.89 157.22L1269.57 157.2L1282.17 141.25L1240.85 141.27L1229.89 157.21V157.22ZM1271.33 157.19L1311.01 157.17L1325.32 141.22L1284 141.24L1271.33 157.19ZM1312.79 157.17L1352.48 157.15L1368.51 141.2L1327.18 141.22L1312.8 157.17H1312.79ZM1354.25 157.15L1393.95 157.13L1411.69 141.18L1370.35 141.2L1354.25 157.15ZM1353.58 157.81L1338.76 172.49L1376.88 172.47L1393.21 157.78L1353.58 157.8V157.81ZM1338.15 173.1L1324.46 186.66L1361.12 186.64L1376.2 173.08L1338.14 173.1H1338.15ZM1323.89 187.22L1311.21 199.78L1346.52 199.76L1360.49 187.19L1323.89 187.21V187.22ZM1310.69 200.31L1298.91 211.98H1332.97L1345.95 200.29L1310.69 200.31ZM1298.41 212.47L1287.44 223.34H1320.33L1332.42 212.45H1298.41V212.47ZM1286.98 223.79L1276.73 233.94H1308.53L1319.82 223.78H1286.98V223.79ZM1276.31 234.37L1266.72 243.87H1297.49L1308.06 234.36H1276.31V234.37ZM1266.32 244.27L1257.33 253.18H1287.15L1297.06 244.26H1266.33L1266.32 244.27ZM1264.95 244.27H1234.22L1226.18 253.19H1255.99L1264.94 244.27H1264.95ZM1232.85 244.28H1202.13L1195.05 253.2H1224.86L1232.85 244.28ZM1200.76 244.29H1170.04L1163.92 253.21H1193.72L1200.76 244.29ZM1168.67 244.3H1137.96L1132.79 253.22H1162.59L1168.67 244.3ZM1136.58 244.31H1105.87L1101.66 253.23H1131.45L1136.57 244.31H1136.58ZM1104.5 244.32H1073.8L1070.55 253.23H1100.34L1104.51 244.32H1104.5ZM1072.43 244.33H1041.73L1039.43 253.24H1069.21L1072.42 244.33H1072.43ZM1040.36 244.34H1009.67L1008.33 253.25H1038.11L1040.37 244.34H1040.36ZM1008.3 244.35H977.61L977.22 253.26H1007L1008.3 244.35ZM976.24 244.37H945.55L946.12 253.28H975.89L976.24 244.37ZM944.18 244.38H913.5L915.02 253.29H944.79L944.18 244.38ZM912.14 244.39H881.46L883.94 253.3H913.7L912.14 244.39ZM880.09 244.4H849.42L852.85 253.31H882.61L880.09 244.4ZM848.05 244.41H817.38L821.76 253.32H851.51L848.04 244.41H848.05ZM816.02 244.42H785.36L790.7 253.33H820.45L816.02 244.42ZM783.99 244.43H753.33L759.62 253.33H789.36L783.98 244.43H783.99ZM751.97 244.44H721.32L728.56 253.34H758.3L751.97 244.44ZM719.95 244.45H689.3L697.5 253.35H727.24L719.96 244.45H719.95ZM687.93 244.47H657.29L666.44 253.37H696.17L687.93 244.47ZM655.93 244.48H625.29L635.39 253.38H665.12L655.93 244.48ZM623.92 244.49H593.29L604.34 253.39H634.06L623.92 244.49ZM623.47 244.09L612.66 234.61H581.02L592.8 244.1H623.47V244.09ZM612.18 234.19L600.63 224.06H567.91L580.5 234.2H612.19L612.18 234.19ZM600.11 223.61L587.74 212.77H553.86L567.34 223.63H600.11V223.61ZM587.19 212.28L573.91 200.64L538.79 200.66L553.26 212.3H587.19V212.28ZM573.32 200.12L559.03 187.59L522.57 187.61L538.14 200.14L573.32 200.12ZM558.39 187.03L542.97 173.51L505.07 173.53L521.88 187.05L558.4 187.03H558.39ZM542.27 172.91L525.57 158.27L486.11 158.29L504.31 172.93L542.28 172.91H542.27ZM524.82 157.61L506.69 141.71L465.53 141.73L485.29 157.63L524.82 157.61ZM505.87 141L486.1 123.67L443.09 123.7L464.63 141.03L505.86 141.01L505.87 141ZM507.71 141L548.95 140.98L531.04 123.65L488.02 123.68L507.71 141.01V141ZM550.79 140.97L592.04 140.95L575.98 123.62L532.95 123.65L550.78 140.98L550.79 140.97ZM593.88 140.95L635.14 140.93L620.94 123.59L577.9 123.62L593.88 140.95ZM636.98 140.92L678.25 140.9L665.91 123.56L622.86 123.59L636.98 140.93V140.92ZM680.09 140.89L721.37 140.87L710.88 123.53L667.83 123.56L680.09 140.9V140.89ZM723.21 140.87L764.5 140.85L755.87 123.5L712.81 123.53L723.22 140.87H723.21ZM766.34 140.84L807.64 140.82L800.87 123.47L757.8 123.5L766.35 140.85L766.34 140.84ZM809.47 140.82L850.77 140.8L845.86 123.45L802.78 123.48L809.47 140.83V140.82ZM852.62 140.79L893.93 140.77L890.88 123.41L847.79 123.44L852.62 140.79ZM895.77 140.76L937.09 140.74L935.9 123.38L892.8 123.41L895.77 140.77V140.76ZM938.94 140.74L980.27 140.72L980.94 123.36L937.83 123.39L938.94 140.75V140.74ZM982.11 140.71L1023.45 140.69L1025.99 123.33L982.87 123.36L982.12 140.72L982.11 140.71ZM1025.29 140.69L1066.64 140.67L1071.04 123.3L1027.91 123.33L1025.29 140.69ZM1068.48 140.66L1109.83 140.64L1116.1 123.27L1072.96 123.3L1068.48 140.67V140.66ZM1111.68 140.64L1153.04 140.62L1161.17 123.25L1118.02 123.28L1111.67 140.65L1111.68 140.64ZM1154.89 140.61L1196.26 140.59L1206.26 123.21L1163.1 123.24L1154.89 140.61ZM1198.11 140.58L1239.49 140.56L1251.35 123.18L1208.18 123.21L1198.1 140.59L1198.11 140.58ZM1241.34 140.56L1282.73 140.54L1296.46 123.16L1253.28 123.19L1241.34 140.57V140.56ZM1284.57 140.53L1325.97 140.51L1341.57 123.12L1298.38 123.15L1284.57 140.53ZM1327.82 140.51L1369.23 140.49L1386.7 123.1L1343.5 123.13L1327.82 140.52V140.51ZM1371.07 140.48L1412.49 140.46L1431.83 123.07L1388.62 123.1L1371.07 140.49V140.48ZM1414.34 140.45L1455.76 140.43L1476.97 123.04L1433.75 123.07L1414.33 140.46L1414.34 140.45ZM1413.54 141.17L1395.73 157.12L1435.44 157.1L1454.9 141.14L1413.55 141.16L1413.54 141.17ZM1394.98 157.78L1378.58 172.47L1416.71 172.45L1434.62 157.76L1394.98 157.78ZM1377.91 173.08L1362.76 186.64L1399.43 186.62L1415.97 173.05L1377.9 173.07L1377.91 173.08ZM1362.13 187.21L1348.1 199.78L1383.42 199.76L1398.75 187.19L1362.14 187.21H1362.13ZM1347.52 200.29L1334.48 211.96H1368.54L1382.78 200.27L1347.52 200.29ZM1333.94 212.45L1321.8 223.32H1354.69L1367.95 212.43H1333.94V212.45ZM1321.29 223.78L1309.95 233.93H1341.75L1354.13 223.76H1321.28L1321.29 223.78ZM1309.48 234.36L1298.87 243.86H1329.65L1341.24 234.35H1309.48V234.36ZM1298.42 244.25L1288.47 253.16H1318.29L1329.16 244.24H1298.42V244.25ZM1288.06 253.54L1278.71 261.91H1307.63L1317.84 253.53H1288.06V253.54ZM1286.73 253.54H1256.95L1248.5 261.92H1277.42L1286.73 253.54ZM1255.62 253.55H1225.85L1218.3 261.93H1247.21L1255.62 253.55ZM1224.52 253.56H1194.75L1188.1 261.94H1217.01L1224.52 253.56ZM1193.42 253.57H1163.66L1157.91 261.95H1186.81L1193.42 253.57ZM1162.33 253.58H1132.57L1127.72 261.96H1156.62L1162.33 253.58ZM1131.25 253.59H1101.49L1097.53 261.97H1126.43L1131.25 253.59ZM1100.16 253.6H1070.41L1067.35 261.98H1096.24L1100.16 253.6ZM1069.08 253.61H1039.33L1037.17 261.99H1066.06L1069.08 253.61ZM1038.01 253.62H1008.27L1007.01 262H1035.89L1038.01 253.62ZM1006.94 253.63H977.2L976.84 262H1005.72L1006.94 253.63ZM975.88 253.64H946.15L946.68 262.01H975.55L975.87 253.64H975.88ZM944.82 253.65H915.09L916.52 262.02H945.39L944.82 253.65ZM913.77 253.66H884.05L886.38 262.03H915.25L913.78 253.66H913.77ZM882.72 253.67H853L856.22 262.04H885.08L882.71 253.67H882.72ZM851.67 253.68H821.95L826.07 262.05H854.93L851.67 253.68ZM820.63 253.69H790.92L795.94 262.06H824.79L820.63 253.69ZM789.59 253.7H759.88L765.79 262.07H794.64L789.59 253.7ZM758.56 253.71H728.86L735.67 262.08H764.51L758.56 253.71ZM727.54 253.72H697.84L705.54 262.09H734.38L727.53 253.72H727.54ZM696.52 253.73H666.83L675.43 262.1H704.27L696.53 253.73H696.52ZM665.5 253.74H635.81L645.3 262.1H674.13L665.49 253.74H665.5ZM634.49 253.75H604.81L615.2 262.11H644.03L634.5 253.75H634.49ZM603.48 253.76H573.8L585.08 262.12H613.9L603.48 253.76ZM603.02 253.39L591.93 244.5H561.3L573.3 253.4H603.02V253.39ZM591.43 244.1L579.6 234.62H547.96L560.76 244.11H591.43V244.1ZM579.08 234.2L566.44 224.07H533.72L547.39 234.21H579.07L579.08 234.2ZM565.88 223.63L552.35 212.79H518.47L533.11 223.65H565.88V223.63ZM551.74 212.3L537.22 200.66L502.1 200.68L517.82 212.32H551.75L551.74 212.3ZM536.57 200.14L520.94 187.61L484.49 187.63L501.4 200.15L536.57 200.13V200.14ZM520.24 187.05L503.37 173.53L465.47 173.55L483.72 187.07L520.23 187.05H520.24ZM502.61 172.93L484.35 158.29L444.89 158.31L464.65 172.94L502.61 172.92V172.93ZM483.53 157.63L463.69 141.73L422.54 141.75L444 157.64L483.52 157.62L483.53 157.63ZM462.8 141.02L441.18 123.69L398.18 123.72L421.57 141.04L462.79 141.02H462.8ZM440.21 122.92L416.55 103.96L371.53 103.99L397.13 122.94L440.21 122.91V122.92ZM442.13 122.92L485.22 122.89L463.59 103.93L418.56 103.96L442.13 122.92ZM487.14 122.89L530.24 122.86L510.64 103.9L465.6 103.93L487.14 122.89ZM532.16 122.86L575.27 122.83L557.7 103.86L512.65 103.89L532.16 122.85V122.86ZM577.19 122.83L620.31 122.8L604.77 103.83L559.71 103.86L577.19 122.83ZM622.23 122.8L665.36 122.77L651.85 103.8L606.78 103.83L622.23 122.8ZM667.27 122.77L710.4 122.74L698.92 103.76L653.84 103.79L667.26 122.76L667.27 122.77ZM712.33 122.74L755.47 122.71L746.03 103.73L700.94 103.76L712.33 122.74ZM757.4 122.71L800.56 122.68L793.15 103.7L748.05 103.73L757.41 122.71H757.4ZM802.48 122.68L845.64 122.65L840.27 103.66L795.16 103.69L802.48 122.68ZM847.57 122.66L890.74 122.63L887.4 103.64L842.28 103.67L847.57 122.66ZM892.67 122.63L935.85 122.6L934.55 103.6L889.42 103.63L892.67 122.62V122.63ZM937.78 122.6L980.97 122.57L981.71 103.57L936.57 103.6L937.78 122.6ZM982.9 122.57L1026.1 122.54L1028.88 103.54L983.73 103.57L982.9 122.57ZM1028.03 122.54L1071.24 122.51L1076.06 103.5L1030.9 103.53L1028.04 122.53L1028.03 122.54ZM1073.16 122.51L1116.38 122.48L1123.24 103.47L1078.07 103.5L1073.17 122.51H1073.16ZM1118.31 122.48L1161.54 122.45L1170.44 103.44L1125.26 103.47L1118.32 122.48H1118.31ZM1163.47 122.45L1206.71 122.42L1217.65 103.4L1172.45 103.43L1163.46 122.44L1163.47 122.45ZM1208.64 122.42L1251.89 122.39L1264.87 103.37L1219.66 103.4L1208.63 122.42H1208.64ZM1253.82 122.39L1297.08 122.36L1312.11 103.34L1266.89 103.37L1253.82 122.39ZM1299.01 122.37L1342.28 122.34L1359.35 103.31L1314.12 103.34L1299 122.36L1299.01 122.37ZM1344.21 122.34L1387.49 122.31L1406.61 103.28L1361.37 103.31L1344.21 122.34ZM1389.41 122.31L1432.7 122.28L1453.87 103.25L1408.62 103.28L1389.41 122.31ZM1434.63 122.28L1477.93 122.25L1501.15 103.21L1455.89 103.24L1434.63 122.27V122.28ZM1479.86 122.25L1523.17 122.22L1548.43 103.18L1503.16 103.21L1479.86 122.25ZM1478.9 123.03L1457.61 140.42L1499.04 140.4L1522.12 123L1478.89 123.03H1478.9ZM1456.73 141.15L1437.2 157.11L1476.92 157.09L1498.09 141.13L1456.73 141.15ZM1436.39 157.76L1418.41 172.45L1456.55 172.43L1476.04 157.74L1436.39 157.76ZM1417.67 173.06L1401.06 186.63L1437.74 186.61L1455.74 173.04L1417.67 173.06ZM1400.37 187.19L1384.99 199.76L1420.31 199.74L1436.99 187.17L1400.37 187.19ZM1384.35 200.28L1370.06 211.96H1404.13L1419.62 200.27L1384.35 200.29V200.28ZM1369.47 212.44L1356.16 223.32H1389.06L1403.49 212.43H1369.47V212.44ZM1355.6 223.77L1343.17 233.92H1374.98L1388.45 223.75H1355.6V223.77ZM1342.65 234.34L1331.02 243.84H1361.8L1374.41 234.33H1342.65V234.34ZM1330.53 244.24L1319.62 253.15H1349.45L1361.28 244.23H1330.54L1330.53 244.24ZM1319.17 253.53L1308.92 261.9H1337.85L1348.96 253.52H1319.17V253.53ZM1308.49 262.25L1298.84 270.13H1326.92L1337.38 262.24H1308.49V262.25ZM1307.2 262.25H1278.32L1269.52 270.14H1297.59L1307.21 262.25H1307.2ZM1277.03 262.26H1248.15L1240.19 270.15H1268.26L1277.03 262.26ZM1246.86 262.27H1217.98L1210.87 270.16H1238.94L1246.86 262.27ZM1216.69 262.28H1187.82L1181.56 270.17H1209.62L1216.69 262.28ZM1186.53 262.29H1157.66L1152.24 270.18H1180.3L1186.53 262.29ZM1156.38 262.3H1127.52L1122.95 270.19H1151L1156.38 262.3ZM1126.23 262.31H1097.37L1093.65 270.2H1121.7L1126.23 262.31ZM1096.08 262.32H1067.23L1064.35 270.21H1092.4L1096.09 262.32H1096.08ZM1065.94 262.33H1037.09L1035.06 270.22H1063.1L1065.94 262.33ZM1035.8 262.34H1006.95L1005.76 270.23H1033.8L1035.8 262.34ZM1005.67 262.34H976.83L976.49 270.22H1004.52L1005.67 262.34ZM975.54 262.35H946.7L947.2 270.23H975.23L975.54 262.35ZM945.42 262.36H916.59L917.94 270.24H945.97L945.43 262.36H945.42ZM915.3 262.37H886.47L888.66 270.25H916.68L915.3 262.37ZM885.18 262.38H856.35L859.39 270.26H887.41L885.18 262.38ZM855.07 262.39H826.25L830.13 270.27H858.14L855.07 262.39ZM824.96 262.4H796.14L800.86 270.28H828.87L824.95 262.4H824.96ZM794.86 262.41H766.05L771.62 270.29H799.63L794.87 262.41H794.86ZM764.76 262.42H735.95L742.36 270.3H770.36L764.76 262.42ZM734.67 262.43H705.87L713.12 270.31H741.12L734.67 262.43ZM704.58 262.44H675.78L683.88 270.32H711.87L704.58 262.44ZM674.5 262.44H645.7L654.64 270.32H682.63L674.5 262.44ZM644.42 262.45H615.63L625.41 270.32H653.4L644.43 262.45H644.42ZM614.34 262.46H585.55L596.17 270.33H624.15L614.33 262.46H614.34ZM584.27 262.47H555.49L566.95 270.34H594.93L584.27 262.47ZM583.8 262.12L572.48 253.77H542.8L554.97 262.13H583.79L583.8 262.12ZM571.97 253.4L559.93 244.51H529.31L542.26 253.41H571.97V253.4ZM559.39 244.11L546.55 234.63H514.92L528.73 244.12H559.39V244.11ZM545.98 234.22L532.26 224.1H499.54L514.3 234.24H545.98V234.22ZM531.65 223.64L516.96 212.8H483.09L498.89 223.65H531.65V223.64ZM516.3 212.31L500.53 200.67L465.42 200.69L482.38 212.33H516.3V212.31ZM499.83 200.16L482.86 187.64L446.41 187.66L464.66 200.18L499.83 200.16ZM482.1 187.07L463.78 173.55L425.89 173.57L445.59 187.09L482.1 187.07ZM462.96 172.95L443.13 158.32L403.68 158.34L425.01 172.97L462.96 172.95ZM442.24 157.66L420.71 141.77L379.57 141.79L402.73 157.68L442.25 157.66H442.24ZM419.74 141.05L396.27 123.73L353.28 123.76L378.52 141.08L419.74 141.06V141.05ZM395.21 122.95L369.53 104L324.52 104.03L352.14 122.98L395.21 122.95ZM368.36 103.14L340.14 82.3102L292.91 82.3502L323.26 103.17L368.36 103.14ZM370.38 103.14L415.49 103.11L389.5 82.2802L342.26 82.3202L370.39 103.15L370.38 103.14ZM417.49 103.1L462.61 103.07L438.84 82.2402L391.59 82.2802L417.49 103.11V103.1ZM464.62 103.07L509.75 103.04L488.21 82.2002L440.95 82.2402L464.62 103.08V103.07ZM511.76 103.04L556.9 103.01L537.59 82.1702L490.32 82.2102L511.76 103.05V103.04ZM558.91 103.01L604.06 102.98L586.98 82.1302L539.7 82.1702L558.91 103.01ZM606.08 102.97L651.24 102.94L636.4 82.0902L589.11 82.1302L606.09 102.98L606.08 102.97ZM653.25 102.94L698.42 102.91L685.81 82.0502L638.5 82.0902L653.25 102.94ZM700.43 102.91L745.61 102.88L735.23 82.0202L687.91 82.0602L700.43 102.92V102.91ZM747.62 102.87L792.81 102.84L784.67 81.9802L737.34 82.0202L747.62 102.88V102.87ZM794.83 102.84L840.03 102.81L834.13 81.9402L786.79 81.9802L794.84 102.84H794.83ZM842.05 102.81L887.26 102.78L883.59 81.9102L836.24 81.9502L842.05 102.82V102.81ZM889.27 102.78L934.49 102.75L933.06 81.8702L885.7 81.9102L889.27 102.78ZM936.51 102.74L981.74 102.71L982.55 81.8302L935.17 81.8702L936.5 102.75L936.51 102.74ZM983.76 102.71L1029 102.68L1032.05 81.8002L984.66 81.8402L983.75 102.72L983.76 102.71ZM1031.02 102.68L1076.27 102.65L1081.56 81.7602L1034.16 81.8002L1031.01 102.68H1031.02ZM1078.29 102.65L1123.55 102.62L1131.09 81.7302L1083.68 81.7702L1078.29 102.66V102.65ZM1125.57 102.61L1170.84 102.58L1180.62 81.6802L1133.2 81.7202L1125.57 102.61ZM1172.86 102.58L1218.14 102.55L1230.17 81.6502L1182.74 81.6902L1172.86 102.59V102.58ZM1220.17 102.55L1265.46 102.52L1279.73 81.6202L1232.29 81.6602L1220.17 102.56V102.55ZM1267.48 102.52L1312.78 102.49L1329.3 81.5802L1281.84 81.6202L1267.47 102.52H1267.48ZM1314.81 102.48L1360.12 102.45L1378.89 81.5402L1331.42 81.5802L1314.81 102.49V102.48ZM1362.14 102.45L1407.46 102.42L1428.48 81.5002L1381 81.5402L1362.14 102.45ZM1409.49 102.42L1454.83 102.39L1478.1 81.4702L1430.61 81.5102L1409.5 102.43L1409.49 102.42ZM1456.85 102.38L1502.2 102.35L1527.72 81.4302L1480.22 81.4702L1456.86 102.39L1456.85 102.38ZM1504.22 102.35L1549.58 102.32L1577.35 81.3902L1529.84 81.4302L1504.23 102.35H1504.22ZM1551.6 102.32L1596.97 102.29L1626.99 81.3602L1579.47 81.4002L1551.6 102.33V102.32ZM1550.45 103.18L1525.1 122.22L1568.42 122.19L1595.73 103.15L1550.45 103.18ZM1524.06 123L1500.9 140.4L1542.34 140.38L1567.3 122.98L1524.06 123.01V123ZM1499.94 141.12L1478.69 157.08L1518.41 157.06L1541.3 141.1L1499.93 141.12H1499.94ZM1477.81 157.74L1458.25 172.43L1496.39 172.41L1517.46 157.72L1477.8 157.74H1477.81ZM1457.44 173.04L1439.38 186.61L1476.06 186.59L1495.52 173.02L1457.44 173.04ZM1438.63 187.17L1421.89 199.74L1457.22 199.72L1475.25 187.15L1438.63 187.17ZM1421.19 200.26L1405.64 211.94H1439.71L1456.46 200.25L1421.18 200.27L1421.19 200.26ZM1405 212.42L1390.52 223.3H1423.42L1439.02 212.41H1405V212.42ZM1389.92 223.75L1376.4 233.91H1408.21L1422.78 223.74H1389.92V223.75ZM1375.83 234.33L1363.18 243.83H1393.97L1407.6 234.31H1375.83V234.33ZM1362.65 244.23L1350.78 253.14H1380.61L1393.4 244.22H1362.65V244.23ZM1350.28 253.52L1339.13 261.9H1368.06L1380.07 253.51H1350.28V253.52ZM1338.67 262.24L1328.17 270.13H1356.25L1367.56 262.24H1338.67ZM1327.73 270.46L1317.83 277.9H1345.11L1355.78 270.45H1327.73V270.46ZM1326.48 270.46H1298.44L1289.34 277.9H1316.62L1326.49 270.46H1326.48ZM1297.18 270.47H1269.14L1260.84 277.91H1288.11L1297.18 270.47ZM1267.89 270.48H1239.85L1232.35 277.92H1259.62L1267.89 270.48ZM1238.61 270.49H1210.58L1203.87 277.93H1231.14L1238.61 270.49ZM1209.32 270.49H1181.29L1175.38 277.93H1202.64L1209.31 270.49H1209.32ZM1180.05 270.5H1152.03L1146.92 277.94H1174.18L1180.05 270.5ZM1150.77 270.51H1122.75L1118.44 277.95H1145.7L1150.77 270.51ZM1121.5 270.52H1093.48L1089.97 277.96H1117.22L1121.5 270.52ZM1092.24 270.53H1064.23L1061.52 277.97H1088.77L1092.25 270.53H1092.24ZM1062.98 270.53H1034.97L1033.05 277.97H1060.29L1062.97 270.53H1062.98ZM1033.72 270.54H1005.72L1004.6 277.98H1031.84L1033.72 270.54ZM1004.47 270.55H976.47L976.15 277.99H1003.39L1004.48 270.55H1004.47ZM975.22 270.56H947.22L947.69 278H974.92L975.21 270.56H975.22ZM945.98 270.57H917.99L919.26 278H946.49L945.98 270.57ZM916.74 270.58H888.75L890.82 278.01H918.04L916.74 270.58ZM887.5 270.58H859.52L862.38 278.01H889.6L887.5 270.58ZM858.27 270.59H830.29L833.95 278.02H861.17L858.27 270.59ZM829.04 270.6H801.06L805.52 278.03H832.73L829.04 270.6ZM799.82 270.61H771.85L777.1 278.04H804.31L799.82 270.61ZM770.6 270.62H742.63L748.68 278.05H775.89L770.61 270.62H770.6ZM741.39 270.63H713.43L720.27 278.06H747.47L741.39 270.63ZM712.17 270.63H684.21L691.85 278.06H719.05L712.18 270.63H712.17ZM682.97 270.64H655.01L663.44 278.07H690.63L682.96 270.64H682.97ZM653.77 270.65H625.82L635.04 278.08H662.23L653.77 270.65ZM624.57 270.66H596.62L606.64 278.09H633.83L624.57 270.66ZM595.37 270.67H567.43L578.24 278.1H605.42L595.37 270.67ZM566.18 270.67H538.24L549.85 278.1H577.03L566.18 270.67ZM565.7 270.35L554.2 262.49H525.42L537.72 270.36H565.69L565.7 270.35ZM553.69 262.13L541.48 253.78H511.81L524.88 262.14H553.69V262.13ZM540.94 253.41L527.95 244.52H497.33L511.23 253.42H540.94V253.41ZM527.36 244.13L513.51 234.66H481.88L496.7 244.15H527.36V244.13ZM512.89 234.23L498.09 224.11H465.38L481.22 234.24H512.89V234.23ZM497.43 223.65L481.58 212.81H447.72L464.68 223.66H497.43V223.65ZM480.87 212.33L463.86 200.69L428.75 200.71L446.96 212.34H480.87V212.33ZM463.1 200.17L444.79 187.65L408.35 187.67L427.94 200.19L463.1 200.17ZM443.96 187.09L424.2 173.57L386.32 173.59L407.47 187.1L443.97 187.08L443.96 187.09ZM423.32 172.97L401.93 158.34L362.49 158.36L385.38 172.99L423.32 172.97ZM400.96 157.68L377.73 141.79L336.6 141.81L361.46 157.7L400.97 157.68H400.96ZM376.68 141.08L351.36 123.76L308.38 123.79L335.48 141.11L376.69 141.09L376.68 141.08ZM350.22 122.98L322.51 104.03L277.51 104.06L307.16 123.01L350.22 122.98ZM321.26 103.17L290.81 82.3502L243.6 82.3902L276.18 103.21L321.26 103.18V103.17ZM289.43 81.4002L255.82 58.4102L206.16 58.4502L242.12 81.4302L289.43 81.3902V81.4002ZM291.54 81.4002L338.86 81.3602L307.7 58.3702L258.02 58.4102L291.53 81.4002H291.54ZM340.98 81.3702L388.31 81.3302L359.61 58.3302L309.92 58.3702L340.97 81.3602L340.98 81.3702ZM390.42 81.3302L437.77 81.2902L411.53 58.2902L361.83 58.3302L390.42 81.3302ZM439.88 81.2902L487.24 81.2502L463.46 58.2402L413.75 58.2802L439.88 81.2802V81.2902ZM489.35 81.2602L536.72 81.2202L515.4 58.2102L465.67 58.2502L489.34 81.2602H489.35ZM538.83 81.2202L586.21 81.1802L567.36 58.1602L517.62 58.2002L538.83 81.2102V81.2202ZM588.33 81.1802L635.72 81.1402L619.33 58.1202L569.58 58.1602L588.33 81.1802ZM637.83 81.1402L685.23 81.1002L671.31 58.0702L621.55 58.1102L637.83 81.1302V81.1402ZM687.35 81.1102L734.76 81.0702L723.3 58.0402L673.52 58.0802L687.34 81.1102H687.35ZM736.88 81.0702L784.31 81.0302L775.32 57.9902L725.53 58.0302L736.88 81.0602V81.0702ZM786.42 81.0302L833.86 80.9902L827.34 57.9502L777.54 57.9902L786.42 81.0302ZM835.98 81.0002L883.43 80.9602L879.38 57.9202L829.57 57.9602L835.98 81.0002ZM885.54 80.9602L933 80.9202L931.42 57.8702L881.59 57.9102L885.53 80.9502L885.54 80.9602ZM935.12 80.9202L982.59 80.8802L983.49 57.8302L933.65 57.8702L935.12 80.9202ZM984.71 80.8902L1032.19 80.8502L1035.56 57.7902L985.71 57.8302L984.71 80.8802V80.8902ZM1034.31 80.8502L1081.81 80.8102L1087.66 57.7502L1037.8 57.7902L1034.32 80.8502H1034.31ZM1083.92 80.8102L1131.43 80.7702L1139.75 57.7002L1089.87 57.7402L1083.92 80.8002V80.8102ZM1133.55 80.7802L1181.07 80.7402L1191.87 57.6702L1141.98 57.7102L1133.55 80.7802ZM1183.19 80.7402L1230.72 80.7002L1244 57.6202L1194.1 57.6602L1183.19 80.7302V80.7402ZM1232.84 80.7002L1280.38 80.6602L1296.14 57.5802L1246.22 57.6202L1232.84 80.7002ZM1282.5 80.6602L1330.05 80.6202L1348.29 57.5302L1298.36 57.5702L1282.5 80.6502V80.6602ZM1332.17 80.6302L1379.73 80.5902L1400.45 57.5002L1350.51 57.5402L1332.16 80.6302H1332.17ZM1381.86 80.5902L1429.44 80.5502L1452.65 57.4502L1402.7 57.4902L1381.87 80.5802L1381.86 80.5902ZM1431.56 80.5502L1479.15 80.5102L1504.84 57.4102L1454.87 57.4502L1431.56 80.5502ZM1481.27 80.5202L1528.87 80.4802L1557.05 57.3702L1507.07 57.4102L1481.27 80.5102V80.5202ZM1530.99 80.4802L1578.6 80.4402L1609.27 57.3302L1559.28 57.3702L1531 80.4802H1530.99ZM1580.72 80.4402L1628.34 80.4002L1661.49 57.2802L1611.49 57.3202L1580.72 80.4302V80.4402ZM1630.47 80.4002L1678.1 80.3602L1713.74 57.2402L1663.72 57.2802L1630.46 80.4002H1630.47ZM1629.11 81.3502L1598.99 102.28L1644.37 102.25L1676.65 81.3102L1629.11 81.3502ZM1597.75 103.15L1570.35 122.19L1613.68 122.16L1643.05 103.11L1597.76 103.14L1597.75 103.15ZM1569.22 122.98L1544.18 140.38L1585.63 140.36L1612.46 122.96L1569.21 122.99L1569.22 122.98ZM1543.15 141.09L1520.18 157.05L1559.91 157.03L1584.52 141.07L1543.14 141.09H1543.15ZM1519.23 157.72L1498.09 172.41L1536.24 172.39L1558.89 157.69L1519.22 157.71L1519.23 157.72ZM1497.22 173.02L1477.7 186.59L1514.39 186.57L1535.31 173L1497.22 173.02ZM1476.88 187.15L1458.79 199.72L1494.13 199.7L1513.51 187.13L1476.88 187.15ZM1458.04 200.24L1441.24 211.92H1475.32L1493.33 200.23L1458.05 200.25L1458.04 200.24ZM1440.54 212.41L1424.89 223.29H1457.8L1474.57 212.4H1440.54V212.41ZM1424.24 223.74L1409.63 233.9H1441.45L1457.11 223.73H1424.25L1424.24 223.74ZM1409.01 234.32L1395.33 243.83H1426.12L1440.78 234.31H1409.01V234.32ZM1394.77 244.22L1381.94 253.13H1411.78L1425.52 244.21H1394.77V244.22ZM1381.41 253.51L1369.36 261.89H1398.29L1411.21 253.5H1381.41V253.51ZM1368.85 262.24L1357.5 270.13H1385.59L1397.75 262.23H1368.85V262.24ZM1357.03 270.45L1346.33 277.89H1373.62L1385.09 270.44H1357.04L1357.03 270.45ZM1334.58 285.23L1344.66 278.2H1317.41L1308.06 285.23H1334.59H1334.58ZM1306.87 285.24L1316.19 278.21H1288.94L1280.34 285.24H1306.86H1306.87ZM1279.17 285.24L1287.74 278.21H1260.5L1252.66 285.24H1279.18H1279.17ZM1251.46 285.25L1259.27 278.23H1232.03L1224.94 285.26H1251.46V285.25ZM1223.77 285.26L1230.83 278.24H1203.6L1197.27 285.27H1223.78L1223.77 285.26ZM1196.07 285.26L1202.37 278.24H1175.14L1169.56 285.27H1196.07V285.26ZM1168.38 285.27L1173.93 278.25H1146.7L1141.87 285.28H1168.38V285.27ZM1140.69 285.28L1145.48 278.26H1118.26L1114.19 285.29H1140.69V285.28ZM1113.01 285.28L1117.05 278.26H1089.83L1086.51 285.29H1113.01V285.28ZM1085.33 285.29L1088.62 278.27H1061.4L1058.84 285.3H1085.33V285.29ZM1057.65 285.3L1060.18 278.28H1032.97L1031.16 285.31H1057.65V285.3ZM1029.98 285.3L1031.76 278.28H1004.55L1003.49 285.31H1029.98V285.3ZM1002.31 285.31L1003.34 278.29H976.14L975.84 285.32H1002.32L1002.31 285.31ZM974.65 285.32L974.92 278.3H947.72L948.17 285.32H974.65ZM946.99 285.32L946.51 278.3H919.31L920.51 285.32H946.99ZM919.33 285.33L918.1 278.31H890.91L892.86 285.33H919.33ZM891.68 285.34L889.69 278.32H862.5L865.21 285.34H891.68ZM864.03 285.34L861.29 278.32H834.1L837.56 285.34H864.03ZM836.38 285.35L832.89 278.34H805.71L809.92 285.36H836.38V285.35ZM808.74 285.36L804.5 278.35H777.32L782.28 285.37H808.74V285.36ZM781.1 285.36L776.11 278.35H748.94L754.65 285.37H781.1V285.36ZM753.46 285.37L747.72 278.36H720.55L727.01 285.38H753.46V285.37ZM725.83 285.38L719.33 278.37H692.16L699.37 285.39H725.82L725.83 285.38ZM698.21 285.39L690.96 278.38H663.8L671.76 285.4H698.2L698.21 285.39ZM670.58 285.39L662.58 278.38H635.42L644.14 285.4H670.58V285.39ZM642.96 285.4L634.21 278.39H607.05L616.52 285.41H642.96V285.4ZM615.35 285.41L605.85 278.4H578.7L588.92 285.42H615.35V285.41ZM587.73 285.41L577.48 278.4H550.33L561.3 285.42H587.73V285.41ZM533.7 285.43H560.13L549.13 278.42H521.99L533.71 285.43H533.7ZM521.46 278.11H548.64L537 270.69H509.06L521.46 278.11ZM508.51 270.36H536.48L524.14 262.49H495.37L508.52 270.36H508.51ZM494.78 262.15H523.59L510.48 253.79H480.81L494.77 262.15H494.78ZM480.2 253.43H509.9L495.95 244.53H465.34L480.2 253.43ZM464.68 244.15H495.33L480.46 234.67H448.84L464.68 244.15ZM448.14 234.25H479.81L463.93 224.12H431.23L448.15 234.25H448.14ZM430.46 223.68H463.21L446.2 212.83H412.34L430.46 223.68ZM411.54 212.36H445.45L427.19 200.71L392.09 200.73L411.54 212.36ZM391.22 200.21L426.37 200.19L406.72 187.67L370.29 187.69L391.22 200.21ZM369.35 187.13L405.84 187.11L384.63 173.6L346.76 173.62L369.35 187.13ZM345.74 173.01L383.68 172.99L360.72 158.36L321.29 158.38L345.74 173.01ZM320.19 157.73L359.69 157.71L334.76 141.82L293.63 141.84L320.19 157.72V157.73ZM292.44 141.13L333.64 141.11L306.47 123.79L263.5 123.82L292.45 141.13H292.44ZM262.19 123.03L305.24 123L275.51 104.05L230.52 104.08L262.19 123.02V123.03ZM229.09 103.23L274.16 103.2L241.49 82.3802L194.29 82.4202L229.09 103.23ZM192.71 81.4802L240.01 81.4402L203.94 58.4602L154.29 58.5002L192.71 81.4802ZM109.92 31.9602L152.55 57.4602L202.31 57.4202L162.29 31.9202L109.93 31.9702L109.92 31.9602ZM164.62 31.9102L204.53 57.4102L254.3 57.3702L217 31.8602L164.62 31.9102ZM219.33 31.8602L256.51 57.3702L306.29 57.3302L271.72 31.8202L219.33 31.8702V31.8602ZM274.06 31.8102L308.52 57.3302L358.31 57.2902L326.46 31.7702L274.05 31.8202L274.06 31.8102ZM328.8 31.7702L360.53 57.2902L410.34 57.2502L381.22 31.7202L328.8 31.7702ZM383.56 31.7202L412.56 57.2502L462.38 57.2102L435.99 31.6802L383.56 31.7302V31.7202ZM438.33 31.6702L464.6 57.2002L514.43 57.1602L490.77 31.6202L438.32 31.6702H438.33ZM493.12 31.6302L516.66 57.1702L566.51 57.1302L545.59 31.5902L493.13 31.6402L493.12 31.6302ZM547.92 31.5802L568.73 57.1202L618.59 57.0802L600.4 31.5302L547.92 31.5802ZM602.74 31.5302L620.81 57.0802L670.68 57.0402L655.23 31.4902L602.74 31.5402V31.5302ZM657.57 31.4802L672.91 57.0302L722.79 56.9902L710.08 31.4302L657.58 31.4802H657.57ZM712.41 31.4302L725.01 56.9902L774.91 56.9502L764.93 31.3802L712.41 31.4302ZM767.28 31.3902L777.14 56.9602L827.05 56.9202L819.81 31.3502L767.28 31.4002V31.3902ZM822.15 31.3402L829.27 56.9102L879.19 56.8702L874.7 31.2902L822.15 31.3402ZM877.04 31.2902L881.42 56.8702L931.35 56.8302L929.6 31.2502L877.04 31.3002V31.2902ZM931.95 31.2402L933.58 56.8202L983.53 56.7802L984.52 31.1902L931.95 31.2402ZM986.87 31.2002L985.76 56.7902L1035.72 56.7502L1039.46 31.1602L986.87 31.2102V31.2002ZM1041.8 31.1502L1037.94 56.7402L1087.91 56.7002L1094.4 31.1002L1041.8 31.1502ZM1096.75 31.1002L1090.15 56.7002L1140.13 56.6602L1149.37 31.0502L1096.75 31.1002ZM1151.71 31.0502L1142.36 56.6602L1192.36 56.6202L1204.35 31.0102L1151.72 31.0602L1151.71 31.0502ZM1206.69 31.0102L1194.59 56.6202L1244.6 56.5802L1259.34 30.9602L1206.69 31.0102ZM1261.69 30.9602L1246.83 56.5802L1296.85 56.5402L1314.34 30.9202L1261.68 30.9702L1261.69 30.9602ZM1316.69 30.9102L1299.08 56.5302L1349.12 56.4902L1369.37 30.8602L1316.7 30.9102H1316.69ZM1371.72 30.8602L1351.36 56.4902L1401.41 56.4502L1424.41 30.8202L1371.72 30.8702V30.8602ZM1426.75 30.8202L1403.63 56.4502L1453.69 56.4102L1479.45 30.7702L1426.75 30.8202ZM1481.81 30.7702L1455.93 56.4102L1506 56.3702L1534.52 30.7302L1481.8 30.7802L1481.81 30.7702ZM1536.87 30.7202L1508.23 56.3602L1558.32 56.3202L1589.6 30.6702L1536.87 30.7202ZM1591.96 30.6702L1560.56 56.3202L1610.66 56.2802L1644.7 30.6202L1591.96 30.6702ZM1647.05 30.6202L1612.89 56.2802L1663 56.2402L1699.8 30.5802L1647.04 30.6302L1647.05 30.6202ZM1702.16 30.5802L1665.24 56.2402L1715.37 56.2002L1754.94 30.5302L1702.17 30.5802H1702.16ZM1810.08 30.4802L1757.29 30.5302L1717.6 56.2002L1767.74 56.1602L1810.08 30.4902V30.4802ZM1766.01 57.2102L1715.98 57.2502L1680.23 80.3702L1727.88 80.3302L1766.02 57.2002L1766.01 57.2102ZM1726.31 81.2802L1678.76 81.3202L1646.39 102.26L1691.78 102.23L1726.31 81.2902V81.2802ZM1690.36 103.08L1645.06 103.11L1615.61 122.16L1658.95 122.13L1690.37 103.08H1690.36ZM1657.65 122.92L1614.4 122.95L1587.49 140.35L1628.95 140.33L1657.65 122.92ZM1627.76 141.04L1586.37 141.06L1561.69 157.02L1601.43 157L1627.76 141.03V141.04ZM1600.34 157.67L1560.67 157.69L1537.95 172.39L1576.11 172.37L1600.35 157.67H1600.34ZM1575.1 172.98L1537 173L1516.01 186.57L1552.71 186.55L1575.09 172.98H1575.1ZM1551.79 187.11L1515.15 187.13L1495.71 199.7L1531.05 199.68L1551.79 187.11ZM1530.19 200.21L1494.9 200.23L1476.84 211.91H1510.93L1530.19 200.21ZM1510.13 212.38H1476.09L1459.27 223.27H1492.18L1510.12 212.38H1510.13ZM1491.43 223.71H1458.56L1442.85 233.88H1474.67L1491.42 223.71H1491.43ZM1473.98 234.3H1442.2L1427.5 243.82H1458.3L1473.98 234.3ZM1457.65 244.2H1426.89L1413.11 253.13H1442.95L1457.65 244.2ZM1442.33 253.49H1412.53L1399.58 261.88H1428.52L1442.34 253.49H1442.33ZM1427.94 262.22H1399.04L1386.84 270.12H1414.93L1427.94 262.22ZM1414.39 270.44H1386.33L1374.83 277.89H1402.12L1414.39 270.44ZM1401.6 278.19H1374.34L1363.47 285.22H1390L1401.59 278.19H1401.6Z"
        fill="url(#paint1_radial_7037_1286)"
      />
    </g>
    <g clip-path="url(#clip1_7037_1286)">
      <path
        d="M1418.33 795.28L1417.81 794.99H1390.71L1379.48 788.19H1378.33L1389.53 794.98H1363.03L1352.53 788.18H1351.38L1361.85 794.97H1335.35L1325.58 788.18H1324.43L1334.17 794.97H1307.67L1298.63 788.18H1297.48L1306.49 794.97H1280L1271.69 788.18H1270.54L1278.82 794.97H1252.33L1244.75 788.18H1243.6L1251.15 794.97H1224.66L1217.81 788.18H1216.66L1223.48 794.97H1197L1190.88 788.18H1189.73L1195.82 794.96H1169.34L1163.95 788.17H1162.8L1168.16 794.95H1141.69L1137.03 788.16H1135.88L1140.51 794.94H1114.04L1110.11 788.15H1108.96L1112.86 794.93H1086.39L1083.18 788.14H1082.03L1085.2 794.92H1058.74L1056.26 788.13H1055.11L1057.56 794.91H1031.1L1029.35 788.12H1028.2L1029.92 794.9H1003.46L1002.44 788.11H1001.29L1002.28 794.89H975.83L975.54 788.1H974.39L974.65 794.88H948.2L948.63 788.09H947.48L947.02 794.87H920.57L921.73 788.08H920.58L919.39 794.86H892.95L894.84 788.08H893.69L891.77 794.86H865.33L867.94 788.08H866.79L864.15 794.86H837.71L841.05 788.08H839.9L836.53 794.86H810.1L814.17 788.08H813.02L808.92 794.86H782.49L787.28 788.08H786.13L781.31 794.86H754.89L760.41 788.08H759.26L753.71 794.85H727.29L733.53 788.07H732.38L726.1 794.84H699.68L706.65 788.06H705.5L698.5 794.83H672.09L679.79 788.03H678.64L670.91 794.8H644.5L652.93 788.02H651.78L643.33 794.79H616.92L626.07 788.02H624.92L615.74 794.79H589.34L599.21 788.01H598.06L588.16 794.78H561.76L572.36 788H571.21L560.58 794.77H534.18L545.51 788H544.36L533.01 794.77H506.03L505.51 795.06H532.52L520.77 802.07H493.02L492.47 802.37H520.25L507.82 809.79H479.27L478.68 810.11H507.27L494.09 817.98H464.68L464.06 818.32H493.51L479.51 826.68H449.19L448.53 827.04H478.89L463.99 835.93H432.7L432 836.31H463.33L447.45 845.79H415.13L414.38 846.2H446.75L429.78 856.33H396.35L395.55 856.77H429.02L410.85 867.62H376.24L375.38 868.09H410.04L390.54 879.74L354.66 879.72L353.73 880.24L389.66 880.26L368.67 892.78L331.43 892.76L330.43 893.32L367.73 893.34L345.08 906.85L306.37 906.83L305.29 907.44L344.06 907.46L319.54 922.09L279.24 922.07L278.07 922.73L318.44 922.75L291.81 938.63L249.78 938.6L248.51 939.31L290.62 939.34L261.59 956.65L217.67 956.62L216.28 957.4L260.28 957.43L228.52 976.37L182.54 976.34L181.02 977.2L227.09 977.23L192.19 998.04L143.95 998L142.27 998.94L190.61 998.98L152.09 1021.96L101.35 1021.92L99.49 1022.96L150.34 1023L107.59 1048.5L54.07 1048.45L52 1049.61L105.64 1049.66L56.85 1078.76H59.32L107.98 1049.66L160.46 1049.71L114.78 1078.82H117.25L162.8 1049.71L215.3 1049.76L172.72 1078.88H175.19L217.63 1049.76L270.14 1049.81L230.68 1078.93H233.16L272.49 1049.81L325.01 1049.86L288.66 1078.99H291.14L327.36 1049.86L379.9 1049.91L346.66 1079.05H349.14L382.24 1049.91L434.79 1049.96L404.67 1079.1H407.15L437.14 1049.96L489.71 1050.01L462.71 1079.16H465.19L492.06 1050.01L544.64 1050.06L520.76 1079.22H523.24L546.99 1050.06L599.58 1050.11L578.82 1079.28H581.3L601.93 1050.12L654.54 1050.17L636.9 1079.34H639.38L656.89 1050.17L709.51 1050.22L695 1079.4H697.48L711.86 1050.22L764.5 1050.27L753.11 1079.46H755.59L766.84 1050.28L819.49 1050.33L811.23 1079.52H813.71L821.84 1050.33L874.51 1050.38L869.38 1079.58H871.86L876.86 1050.38L929.54 1050.43L927.54 1079.64H930.02L931.88 1050.44L984.57 1050.49L985.71 1079.7H988.19L986.92 1050.49L1039.63 1050.54L1043.9 1079.76H1046.39L1041.99 1050.54L1094.71 1050.59L1102.12 1079.82H1104.61L1097.07 1050.6L1149.81 1050.65L1160.36 1079.88H1162.85L1152.17 1050.65L1204.92 1050.7L1218.61 1079.94H1221.1L1207.28 1050.7L1260.05 1050.75L1276.88 1080H1279.37L1262.41 1050.75L1315.19 1050.8L1335.16 1080.05H1337.65L1317.54 1050.8L1370.33 1050.85L1393.45 1080.11H1395.94L1372.69 1050.85L1425.5 1050.9L1451.76 1080.17H1454.25L1427.85 1050.9L1480.67 1050.95L1510.08 1080.23H1512.57L1483.02 1050.96L1535.86 1051.01L1568.42 1080.29H1570.91L1538.21 1051.01L1591.06 1051.06L1626.78 1080.35H1629.27L1593.42 1051.06L1646.28 1051.11L1685.15 1080.41H1687.64L1648.63 1051.12L1701.51 1051.17L1743.54 1080.47H1746.03L1703.87 1051.17L1756.76 1051.22L1801.95 1080.53H1804.44L1759.12 1051.22L1812.03 1051.27L1860.37 1080.59H1862.86L1814.38 1051.28L1868.48 1051.33L1866.42 1050.16L1812.44 1050.11L1769.99 1024.44L1821.26 1024.48L1819.41 1023.43L1768.25 1023.39L1730.01 1000.26L1778.73 1000.3L1777.06 999.35L1728.44 999.31L1693.81 978.37L1740.22 978.4L1738.71 977.54L1692.39 977.51L1660.89 958.46L1705.2 958.49L1703.82 957.71L1659.59 957.68L1630.81 940.27L1673.2 940.3L1671.94 939.58L1629.62 939.55L1603.22 923.58L1643.85 923.6L1642.69 922.94L1602.12 922.92L1577.82 908.22L1616.84 908.24L1615.77 907.63L1576.82 907.61L1554.37 894.04L1591.89 894.06L1590.9 893.5L1553.44 893.48L1532.65 880.91L1568.79 880.93L1567.87 880.41L1531.79 880.39L1512.47 868.71H1547.32L1546.47 868.24H1511.67L1493.68 857.34H1527.33L1526.53 856.9H1492.92L1476.12 846.73H1508.66L1507.91 846.32H1475.42L1459.7 836.8H1491.19L1490.49 836.41H1459.04L1444.3 827.48H1474.81L1474.15 827.12H1443.68L1429.82 818.73H1459.41L1458.79 818.39H1429.24L1416.2 810.49H1444.92L1444.34 810.17H1415.65L1403.35 802.72H1431.25L1430.7 802.42H1402.83L1391.21 795.38H1418.34L1418.33 795.28ZM1362.3 795.27L1373.13 802.3H1345.88L1335.77 795.27H1362.3ZM1161.86 880.11L1126.63 880.09L1121.12 868.43H1155.15L1161.86 880.11ZM1156.67 868.45H1190.7L1198.67 880.13L1163.44 880.11L1156.67 868.44V868.45ZM1125.06 880.1L1089.84 880.08L1085.58 868.42H1119.6L1125.06 880.1ZM1088.27 880.08L1053.06 880.06L1050.05 868.4H1084.06L1088.27 880.08ZM1051.49 880.06L1016.28 880.04L1014.52 868.38H1048.53L1051.49 880.06ZM1014.71 880.05L979.51 880.03L979 868.37H1013L1014.7 880.04L1014.71 880.05ZM977.94 880.03L942.75 880.01L943.49 868.35H977.49L977.94 880.02V880.03ZM941.18 880.01L905.99 879.99L907.98 868.34H941.97L941.17 880.01H941.18ZM904.42 880L869.24 879.98L872.48 868.33H906.46L904.41 880H904.42ZM867.67 879.98L832.5 879.96L836.99 868.31H870.97L867.67 879.98ZM830.93 879.96L795.76 879.94L801.5 868.29H835.47L830.92 879.96H830.93ZM794.19 879.95L759.03 879.93L766.02 868.28H799.99L794.19 879.94V879.95ZM757.46 879.93L722.3 879.91L730.54 868.26H764.5L757.46 879.92V879.93ZM720.74 879.91L685.59 879.89L695.08 868.24H729.04L720.75 879.9L720.74 879.91ZM720.37 880.43L711.45 892.97L674.96 892.95L685.17 880.42L720.37 880.44V880.43ZM721.94 880.43L757.15 880.45L749.57 892.99L713.08 892.97L721.95 880.43H721.94ZM758.72 880.45L793.94 880.47L787.7 893.01L751.2 892.99L758.72 880.45ZM795.5 880.47L830.72 880.49L825.83 893.03L789.32 893.01L795.5 880.47ZM832.3 880.48L867.53 880.5L863.98 893.04L827.46 893.02L832.3 880.48ZM869.1 880.5L904.33 880.52L902.13 893.06L865.61 893.04L869.1 880.5ZM905.9 880.52L941.14 880.54L940.28 893.09L903.75 893.07L905.9 880.53V880.52ZM942.72 880.53L977.97 880.55L978.46 893.1L941.92 893.08L942.72 880.53ZM979.54 880.55L1014.79 880.57L1016.62 893.12L980.08 893.1L979.54 880.55ZM1016.36 880.57L1051.62 880.59L1054.8 893.14L1018.25 893.12L1016.36 880.57ZM1053.2 880.59L1088.47 880.61L1093 893.16L1056.44 893.14L1053.2 880.59ZM1090.04 880.6L1125.31 880.62L1131.19 893.17L1094.63 893.15L1090.04 880.6ZM1126.88 880.62L1162.16 880.64L1169.38 893.2L1132.81 893.18L1126.88 880.62ZM1163.74 880.64L1199.03 880.66L1207.6 893.22L1171.02 893.2L1163.74 880.64ZM1200.59 880.65L1235.88 880.67L1245.8 893.23L1209.22 893.21L1200.59 880.65ZM1200.24 880.13L1192.22 868.46H1226.26L1235.48 880.14L1200.24 880.12V880.13ZM1191.88 867.98L1184.41 857.11H1217.28L1225.87 867.99H1191.88V867.98ZM1190.37 867.98H1156.39L1150.09 857.1H1182.95L1190.37 867.98ZM1154.87 867.96H1120.89L1115.75 857.08H1148.61L1154.86 867.96H1154.87ZM1119.38 867.95H1085.41L1081.44 857.07H1114.29L1119.38 867.95ZM1083.89 867.93H1049.93L1047.13 857.05H1079.98L1083.9 867.93H1083.89ZM1048.41 867.92H1014.45L1012.81 857.04H1045.65L1048.4 867.92H1048.41ZM1012.94 867.9H978.99L978.52 857.03H1011.36L1012.95 867.9H1012.94ZM977.47 867.89H943.52L944.21 857.02H977.04L977.46 867.89H977.47ZM942.01 867.87H908.07L909.93 857H942.76L942.02 867.87H942.01ZM906.56 867.86H872.63L875.65 856.99H908.47L906.56 867.86ZM871.11 867.84H837.18L841.37 856.97H874.19L871.12 867.84H871.11ZM835.67 867.83H801.75L807.1 856.96H839.91L835.67 867.83ZM800.23 867.81H766.31L772.82 856.94H805.62L800.22 867.81H800.23ZM764.8 867.8H730.89L738.56 856.94H771.36L764.8 867.8ZM729.38 867.78H695.47L704.31 856.92H737.1L729.38 867.78ZM693.96 867.77H660.06L670.06 856.91H702.85L693.96 867.77ZM693.56 868.25L684.02 879.9L648.88 879.88L659.61 868.24H693.56V868.25ZM683.6 880.42L673.33 892.95L636.85 892.93L648.4 880.4L683.6 880.42ZM672.87 893.51L661.79 907.04L623.86 907.02L636.33 893.49L672.87 893.51ZM674.5 893.51L711.05 893.53L701.42 907.06L663.49 907.04L674.51 893.51H674.5ZM712.67 893.53L749.22 893.55L741.04 907.08L703.1 907.06L712.67 893.53ZM750.86 893.55L787.42 893.57L780.69 907.1L742.74 907.08L750.86 893.55ZM789.05 893.57L825.62 893.59L820.34 907.13L782.38 907.11L789.05 893.58V893.57ZM827.25 893.59L863.82 893.61L859.99 907.15L822.03 907.13L827.25 893.59ZM865.45 893.61L902.03 893.63L899.65 907.17L861.68 907.15L865.45 893.61ZM903.66 893.62L940.25 893.64L939.32 907.18L901.34 907.16L903.66 893.62ZM941.88 893.64L978.47 893.66L979 907.2L941.02 907.18L941.88 893.64ZM980.11 893.66L1016.71 893.68L1018.69 907.23L980.7 907.21L980.11 893.67V893.66ZM1018.34 893.68L1054.95 893.7L1058.38 907.25L1020.38 907.23L1018.34 893.68ZM1056.58 893.7L1093.19 893.72L1098.08 907.27L1060.07 907.25L1056.57 893.7H1056.58ZM1094.83 893.72L1131.45 893.74L1137.79 907.29L1099.78 907.27L1094.83 893.72ZM1133.08 893.74L1169.71 893.76L1177.51 907.31L1139.49 907.29L1133.09 893.74H1133.08ZM1171.34 893.75L1207.97 893.77L1217.22 907.33L1179.19 907.31L1171.33 893.76L1171.34 893.75ZM1209.61 893.77L1246.25 893.79L1256.96 907.35L1218.92 907.33L1209.6 893.77H1209.61ZM1247.89 893.79L1284.54 893.81L1296.71 907.37L1258.67 907.35L1247.9 893.79H1247.89ZM1247.44 893.23L1237.46 880.67L1272.76 880.69L1284.03 893.25L1247.44 893.23ZM1237.05 880.15L1227.78 868.48H1261.82L1272.29 880.17L1237.05 880.15ZM1227.39 867.99L1218.75 857.12H1251.63L1261.39 868H1227.4L1227.39 867.99ZM1218.39 856.67L1210.33 846.52H1242.11L1251.22 856.68H1218.39V856.67ZM1216.93 856.67H1184.11L1177.14 846.51H1208.92L1216.94 856.67H1216.93ZM1182.64 856.66H1149.82L1143.94 846.5H1175.71L1182.64 856.66ZM1148.36 856.64H1115.55L1110.75 846.48H1142.52L1148.36 856.64ZM1114.08 856.63H1081.27L1077.56 846.47H1109.32L1114.07 856.63H1114.08ZM1079.81 856.61H1047.01L1044.39 846.45H1076.15L1079.81 856.61ZM1045.55 856.6H1012.75L1011.22 846.45H1042.97L1045.54 856.6H1045.55ZM1011.29 856.59H978.5L978.06 846.44H1009.81L1011.29 856.59ZM977.03 856.57H944.24L944.89 846.42H976.63L977.02 856.57H977.03ZM942.79 856.56H910.01L911.74 846.41H943.48L942.79 856.56ZM908.54 856.55H875.77L878.59 846.4H910.32L908.54 856.55ZM874.31 856.53H841.54L845.45 846.38H877.18L874.31 856.53ZM840.08 856.52H807.32L812.31 846.37H844.03L840.08 856.52ZM805.85 856.51H773.09L779.17 846.36H810.89L805.85 856.51ZM771.63 856.49H738.88L746.05 846.35H777.76L771.63 856.49ZM737.42 856.48H704.67L712.92 846.34H744.63L737.42 856.48ZM703.21 856.47H670.47L679.81 846.33H711.51L703.21 856.47ZM669.01 856.45H636.27L646.69 846.31H678.39L669.01 856.45ZM668.59 856.9L658.54 867.75H624.65L635.81 856.89H668.59V856.9ZM658.1 868.24L647.31 879.88L612.17 879.86L624.15 868.22H658.09L658.1 868.24ZM646.83 880.4L635.22 892.93L598.75 892.91L611.64 880.38L646.83 880.4ZM634.7 893.49L622.17 907.02L584.25 907L598.16 893.48L634.69 893.5L634.7 893.49ZM621.61 907.63L608.05 922.27L568.57 922.25L583.63 907.61L621.61 907.63ZM623.3 907.63L661.29 907.65L649.29 922.29L609.8 922.27L623.3 907.63ZM662.99 907.65L700.98 907.67L690.55 922.32L651.05 922.3L662.98 907.66L662.99 907.65ZM702.68 907.67L740.68 907.69L731.82 922.34L692.32 922.32L702.68 907.67ZM742.37 907.69L780.38 907.71L773.09 922.36L733.58 922.34L742.37 907.69ZM782.08 907.71L820.1 907.73L814.38 922.38L774.86 922.36L782.08 907.71ZM821.79 907.73L859.81 907.75L855.66 922.41L816.13 922.39L821.78 907.74L821.79 907.73ZM861.51 907.75L899.54 907.77L896.96 922.43L857.42 922.41L861.5 907.75H861.51ZM901.24 907.77L939.28 907.79L938.28 922.45L898.74 922.43L901.25 907.77H901.24ZM940.98 907.79L979.03 907.81L979.6 922.47L940.05 922.45L940.99 907.79H940.98ZM980.72 907.81L1018.77 907.83L1020.91 922.5L981.35 922.48L980.71 907.82L980.72 907.81ZM1020.47 907.83L1058.53 907.85L1062.25 922.52L1022.68 922.5L1020.47 907.83ZM1060.23 907.85L1098.3 907.87L1103.59 922.54L1064.01 922.52L1060.23 907.85ZM1100 907.87L1138.08 907.89L1144.95 922.56L1105.37 922.54L1100.01 907.87H1100ZM1139.77 907.9L1177.85 907.92L1186.29 922.59L1146.7 922.57L1139.77 907.9ZM1179.56 907.92L1217.65 907.94L1227.67 922.62L1188.07 922.6L1179.56 907.93V907.92ZM1219.35 907.94L1257.45 907.96L1269.05 922.64L1229.44 922.62L1219.35 907.94ZM1259.14 907.96L1297.25 907.98L1310.42 922.66L1270.8 922.64L1259.14 907.96ZM1298.95 907.98L1337.06 908L1351.81 922.68L1312.19 922.66L1298.95 907.98ZM1298.4 907.37L1286.17 893.81L1322.82 893.83L1336.45 907.39L1298.4 907.37ZM1285.66 893.25L1274.33 880.69L1309.63 880.71L1322.25 893.27L1285.65 893.25H1285.66ZM1273.86 880.16L1263.33 868.49H1297.38L1309.11 880.18L1273.86 880.16ZM1262.9 868.01L1253.09 857.14H1285.97L1296.89 868.03H1262.89L1262.9 868.01ZM1252.68 856.68L1243.52 846.53H1275.31L1285.51 856.69H1252.68V856.68ZM1243.15 846.11L1234.58 836.61H1265.35L1274.9 846.12H1243.15V846.11ZM1241.73 846.11H1209.99L1202.44 836.6H1233.2L1241.72 846.11H1241.73ZM1208.57 846.1H1176.83L1170.3 836.59H1201.06L1208.56 846.1H1208.57ZM1175.42 846.08H1143.69L1138.18 836.57H1168.93L1175.41 846.08H1175.42ZM1142.28 846.07H1110.55L1106.06 836.56H1136.81L1142.27 846.07H1142.28ZM1109.13 846.06H1077.41L1073.94 836.55H1104.69L1109.13 846.06ZM1076 846.05H1044.28L1041.83 836.55H1072.57L1075.99 846.05H1076ZM1042.87 846.04H1011.16L1009.73 836.54H1040.47L1042.88 846.04H1042.87ZM1009.74 846.02H978.03L977.62 836.52H1008.35L1009.74 846.02ZM976.62 846.01H944.92L945.53 836.51H976.26L976.63 846.01H976.62ZM943.51 846H911.81L913.43 836.5H944.15L943.5 846H943.51ZM910.4 845.99H878.71L881.35 836.49H912.07L910.4 845.99ZM877.3 845.97H845.61L849.27 836.47H879.98L877.3 845.97ZM844.2 845.96H812.52L817.19 836.46H847.9L844.2 845.96ZM811.1 845.95H779.43L785.12 836.45H815.82L811.1 845.95ZM778.02 845.94H746.35L753.06 836.45H783.76L778.03 845.94H778.02ZM744.93 845.92H713.27L720.99 836.43H751.68L744.93 845.92ZM711.86 845.91H680.2L688.94 836.42H719.63L711.86 845.91ZM678.79 845.9H647.14L656.89 836.41H687.57L678.79 845.9ZM645.72 845.89H614.07L624.84 836.4H655.52L645.72 845.89ZM645.28 846.31L634.81 856.44H602.08L613.59 846.3H645.28V846.31ZM634.35 856.89L623.14 867.74H589.25L601.57 856.88H634.35V856.89ZM622.64 868.22L610.61 879.86L575.48 879.84L588.71 868.2H622.65L622.64 868.22ZM610.07 880.38L597.12 892.91L560.65 892.89L574.88 880.36L610.06 880.38H610.07ZM596.54 893.47L582.56 906.99L544.65 906.97L560.01 893.45L596.54 893.47ZM581.94 907.6L566.81 922.24L527.34 922.22L543.97 907.58L581.94 907.6ZM566.13 922.9L549.7 938.8L508.53 938.78L526.59 922.88L566.13 922.9ZM567.89 922.9L607.44 922.92L592.71 938.82L551.53 938.8L567.89 922.9ZM609.2 922.93L648.76 922.95L635.73 938.86L594.54 938.84L609.2 922.94V922.93ZM650.52 922.95L690.08 922.97L678.76 938.88L637.57 938.86L650.53 922.95H650.52ZM691.85 922.97L731.42 922.99L721.8 938.9L680.6 938.88L691.85 922.97ZM733.19 923L772.77 923.02L764.85 938.93L723.64 938.91L733.19 923ZM774.53 923.02L814.12 923.04L807.91 938.96L766.69 938.94L774.53 923.03V923.02ZM815.89 923.04L855.49 923.06L850.99 938.98L809.76 938.96L815.9 923.04H815.89ZM857.25 923.06L896.85 923.08L894.05 939L852.81 938.98L857.24 923.06H857.25ZM898.62 923.09L938.23 923.11L937.14 939.03L895.89 939.01L898.61 923.09H898.62ZM940 923.11L979.62 923.13L980.24 939.06L938.98 939.04L940 923.12V923.11ZM981.39 923.13L1021.02 923.15L1023.35 939.08L982.09 939.06L981.4 923.13H981.39ZM1022.78 923.16L1062.42 923.18L1066.46 939.11L1025.19 939.09L1022.79 923.16H1022.78ZM1064.19 923.18L1103.83 923.2L1109.58 939.13L1068.3 939.11L1064.19 923.18ZM1105.6 923.2L1145.25 923.22L1152.71 939.16L1111.42 939.14L1105.6 923.21V923.2ZM1147.02 923.23L1186.68 923.25L1195.85 939.19L1154.55 939.17L1147.02 923.23ZM1188.45 923.25L1228.12 923.27L1239 939.21L1197.69 939.19L1188.45 923.25ZM1229.89 923.27L1269.57 923.29L1282.17 939.24L1240.85 939.22L1229.89 923.28V923.27ZM1271.33 923.3L1311.01 923.32L1325.32 939.27L1284 939.25L1271.33 923.3ZM1312.79 923.32L1352.48 923.34L1368.51 939.29L1327.18 939.27L1312.8 923.32H1312.79ZM1354.25 923.34L1393.95 923.36L1411.69 939.31L1370.35 939.29L1354.25 923.34ZM1353.58 922.68L1338.76 908L1376.88 908.02L1393.21 922.71L1353.58 922.69V922.68ZM1338.15 907.39L1324.46 893.83L1361.12 893.85L1376.2 907.41L1338.14 907.39H1338.15ZM1323.89 893.27L1311.21 880.71L1346.52 880.73L1360.49 893.3L1323.89 893.28V893.27ZM1310.69 880.18L1298.91 868.51H1332.97L1345.95 880.2L1310.69 880.18ZM1298.41 868.02L1287.44 857.15H1320.33L1332.42 868.04H1298.41V868.02ZM1286.98 856.7L1276.73 846.55H1308.53L1319.82 856.71H1286.98V856.7ZM1276.31 846.12L1266.72 836.62H1297.49L1308.06 846.13H1276.31V846.12ZM1266.32 836.22L1257.33 827.31H1287.15L1297.06 836.23H1266.33L1266.32 836.22ZM1264.95 836.22H1234.22L1226.18 827.3H1255.99L1264.94 836.22H1264.95ZM1232.85 836.21H1202.13L1195.05 827.29H1224.86L1232.85 836.21ZM1200.76 836.2H1170.04L1163.92 827.28H1193.72L1200.76 836.2ZM1168.67 836.19H1137.96L1132.79 827.27H1162.59L1168.67 836.19ZM1136.58 836.18H1105.87L1101.66 827.26H1131.45L1136.57 836.18H1136.58ZM1104.5 836.17H1073.8L1070.55 827.26H1100.34L1104.51 836.17H1104.5ZM1072.43 836.16H1041.73L1039.43 827.25H1069.21L1072.42 836.16H1072.43ZM1040.36 836.15H1009.67L1008.33 827.24H1038.11L1040.37 836.15H1040.36ZM1008.3 836.14H977.61L977.22 827.23H1007L1008.3 836.14ZM976.24 836.12H945.55L946.12 827.21H975.89L976.24 836.12ZM944.18 836.11H913.5L915.02 827.2H944.79L944.18 836.11ZM912.14 836.1H881.46L883.94 827.19H913.7L912.14 836.1ZM880.09 836.09H849.42L852.85 827.18H882.61L880.09 836.09ZM848.05 836.08H817.38L821.76 827.17H851.51L848.04 836.08H848.05ZM816.02 836.07H785.36L790.7 827.16H820.45L816.02 836.07ZM783.99 836.06H753.33L759.62 827.16H789.36L783.98 836.06H783.99ZM751.97 836.05H721.32L728.56 827.15H758.3L751.97 836.05ZM719.95 836.04H689.3L697.5 827.14H727.24L719.96 836.04H719.95ZM687.93 836.02H657.29L666.44 827.12H696.17L687.93 836.02ZM655.93 836.01H625.29L635.39 827.11H665.12L655.93 836.01ZM623.92 836H593.29L604.34 827.1H634.06L623.92 836ZM623.47 836.4L612.66 845.88H581.02L592.8 836.39H623.47V836.4ZM612.18 846.3L600.63 856.43H567.91L580.5 846.29H612.19L612.18 846.3ZM600.11 856.88L587.74 867.72H553.86L567.34 856.86H600.11V856.88ZM587.19 868.21L573.91 879.85L538.79 879.83L553.26 868.19H587.19V868.21ZM573.32 880.37L559.03 892.9L522.57 892.88L538.14 880.35L573.32 880.37ZM558.39 893.46L542.97 906.98L505.07 906.96L521.88 893.44L558.4 893.46H558.39ZM542.27 907.58L525.57 922.22L486.11 922.2L504.31 907.56L542.28 907.58H542.27ZM524.82 922.88L506.69 938.78L465.53 938.76L485.29 922.86L524.82 922.88ZM505.87 939.49L486.1 956.82L443.09 956.79L464.63 939.46L505.86 939.48L505.87 939.49ZM507.71 939.49L548.95 939.51L531.04 956.84L488.02 956.81L507.71 939.48V939.49ZM550.79 939.52L592.04 939.54L575.98 956.87L532.95 956.84L550.78 939.51L550.79 939.52ZM593.88 939.54L635.14 939.56L620.94 956.9L577.9 956.87L593.88 939.54ZM636.98 939.57L678.25 939.59L665.91 956.93L622.86 956.9L636.98 939.56V939.57ZM680.09 939.6L721.37 939.62L710.88 956.96L667.83 956.93L680.09 939.59V939.6ZM723.21 939.62L764.5 939.64L755.87 956.99L712.81 956.96L723.22 939.62H723.21ZM766.34 939.65L807.64 939.67L800.87 957.02L757.8 956.99L766.35 939.64L766.34 939.65ZM809.47 939.67L850.77 939.69L845.86 957.04L802.78 957.01L809.47 939.66V939.67ZM852.62 939.7L893.93 939.72L890.88 957.08L847.79 957.05L852.62 939.7ZM895.77 939.73L937.09 939.75L935.9 957.11L892.8 957.08L895.77 939.72V939.73ZM938.94 939.75L980.27 939.77L980.94 957.13L937.83 957.1L938.94 939.74V939.75ZM982.11 939.78L1023.45 939.8L1025.99 957.16L982.87 957.13L982.12 939.77L982.11 939.78ZM1025.29 939.8L1066.64 939.82L1071.04 957.19L1027.91 957.16L1025.29 939.8ZM1068.48 939.83L1109.83 939.85L1116.1 957.22L1072.96 957.19L1068.48 939.82V939.83ZM1111.68 939.85L1153.04 939.87L1161.17 957.24L1118.02 957.21L1111.67 939.84L1111.68 939.85ZM1154.89 939.88L1196.26 939.9L1206.26 957.28L1163.1 957.25L1154.89 939.88ZM1198.11 939.91L1239.49 939.93L1251.35 957.31L1208.18 957.28L1198.1 939.9L1198.11 939.91ZM1241.34 939.93L1282.73 939.95L1296.46 957.33L1253.28 957.3L1241.34 939.92V939.93ZM1284.57 939.96L1325.97 939.98L1341.57 957.37L1298.38 957.34L1284.57 939.96ZM1327.82 939.98L1369.23 940L1386.7 957.39L1343.5 957.36L1327.82 939.97V939.98ZM1371.07 940.01L1412.49 940.03L1431.83 957.42L1388.62 957.39L1371.07 940V940.01ZM1414.34 940.04L1455.76 940.06L1476.97 957.45L1433.75 957.42L1414.33 940.03L1414.34 940.04ZM1413.54 939.32L1395.73 923.37L1435.44 923.39L1454.9 939.35L1413.55 939.33L1413.54 939.32ZM1394.98 922.71L1378.58 908.02L1416.71 908.04L1434.62 922.73L1394.98 922.71ZM1377.91 907.41L1362.76 893.85L1399.43 893.87L1415.97 907.44L1377.9 907.42L1377.91 907.41ZM1362.13 893.28L1348.1 880.71L1383.42 880.73L1398.75 893.3L1362.14 893.28H1362.13ZM1347.52 880.2L1334.48 868.53H1368.54L1382.78 880.22L1347.52 880.2ZM1333.94 868.04L1321.8 857.17H1354.69L1367.95 868.06H1333.94V868.04ZM1321.29 856.71L1309.95 846.56H1341.75L1354.13 856.73H1321.28L1321.29 856.71ZM1309.48 846.13L1298.87 836.63H1329.65L1341.24 846.14H1309.48V846.13ZM1298.42 836.24L1288.47 827.33H1318.29L1329.16 836.25H1298.42V836.24ZM1288.06 826.95L1278.71 818.58H1307.63L1317.84 826.96H1288.06V826.95ZM1286.73 826.95H1256.95L1248.5 818.57H1277.42L1286.73 826.95ZM1255.62 826.94H1225.85L1218.3 818.56H1247.21L1255.62 826.94ZM1224.52 826.93H1194.75L1188.1 818.55H1217.01L1224.52 826.93ZM1193.42 826.92H1163.66L1157.91 818.54H1186.81L1193.42 826.92ZM1162.33 826.91H1132.57L1127.72 818.53H1156.62L1162.33 826.91ZM1131.25 826.9H1101.49L1097.53 818.52H1126.43L1131.25 826.9ZM1100.16 826.89H1070.41L1067.35 818.51H1096.24L1100.16 826.89ZM1069.08 826.88H1039.33L1037.17 818.5H1066.06L1069.08 826.88ZM1038.01 826.87H1008.27L1007.01 818.49H1035.89L1038.01 826.87ZM1006.94 826.86H977.2L976.84 818.49H1005.72L1006.94 826.86ZM975.88 826.85H946.15L946.68 818.48H975.55L975.87 826.85H975.88ZM944.82 826.84H915.09L916.52 818.47H945.39L944.82 826.84ZM913.77 826.83H884.05L886.38 818.46H915.25L913.78 826.83H913.77ZM882.72 826.82H853L856.22 818.45H885.08L882.71 826.82H882.72ZM851.67 826.81H821.95L826.07 818.44H854.93L851.67 826.81ZM820.63 826.8H790.92L795.94 818.43H824.79L820.63 826.8ZM789.59 826.79H759.88L765.79 818.42H794.64L789.59 826.79ZM758.56 826.78H728.86L735.67 818.41H764.51L758.56 826.78ZM727.54 826.77H697.84L705.54 818.4H734.38L727.53 826.77H727.54ZM696.52 826.76H666.83L675.43 818.39H704.27L696.53 826.76H696.52ZM665.5 826.75H635.81L645.3 818.39H674.13L665.49 826.75H665.5ZM634.49 826.74H604.81L615.2 818.38H644.03L634.5 826.74H634.49ZM603.48 826.73H573.8L585.08 818.37H613.9L603.48 826.73ZM603.02 827.1L591.93 835.99H561.3L573.3 827.09H603.02V827.1ZM591.43 836.39L579.6 845.87H547.96L560.76 836.38H591.43V836.39ZM579.08 846.29L566.44 856.42H533.72L547.39 846.28H579.07L579.08 846.29ZM565.88 856.86L552.35 867.7H518.47L533.11 856.84H565.88V856.86ZM551.74 868.19L537.22 879.83L502.1 879.81L517.82 868.17H551.75L551.74 868.19ZM536.57 880.35L520.94 892.88L484.49 892.86L501.4 880.34L536.57 880.36V880.35ZM520.24 893.44L503.37 906.96L465.47 906.94L483.72 893.42L520.23 893.44H520.24ZM502.61 907.56L484.35 922.2L444.89 922.18L464.65 907.55L502.61 907.57V907.56ZM483.53 922.86L463.69 938.76L422.54 938.74L444 922.85L483.52 922.87L483.53 922.86ZM462.8 939.47L441.18 956.8L398.18 956.77L421.57 939.45L462.79 939.47H462.8ZM440.21 957.57L416.55 976.53L371.53 976.5L397.13 957.55L440.21 957.58V957.57ZM442.13 957.57L485.22 957.6L463.59 976.56L418.56 976.53L442.13 957.57ZM487.14 957.6L530.24 957.63L510.64 976.59L465.6 976.56L487.14 957.6ZM532.16 957.63L575.27 957.66L557.7 976.63L512.65 976.6L532.16 957.64V957.63ZM577.19 957.66L620.31 957.69L604.77 976.66L559.71 976.63L577.19 957.66ZM622.23 957.69L665.36 957.72L651.85 976.69L606.78 976.66L622.23 957.69ZM667.27 957.72L710.4 957.75L698.92 976.73L653.84 976.7L667.26 957.73L667.27 957.72ZM712.33 957.75L755.47 957.78L746.03 976.76L700.94 976.73L712.33 957.75ZM757.4 957.78L800.56 957.81L793.15 976.79L748.05 976.76L757.41 957.78H757.4ZM802.48 957.81L845.64 957.84L840.27 976.83L795.16 976.8L802.48 957.81ZM847.57 957.83L890.74 957.86L887.4 976.85L842.28 976.82L847.57 957.83ZM892.67 957.86L935.85 957.89L934.55 976.89L889.42 976.86L892.67 957.87V957.86ZM937.78 957.89L980.97 957.92L981.71 976.92L936.57 976.89L937.78 957.89ZM982.9 957.92L1026.1 957.95L1028.88 976.95L983.73 976.92L982.9 957.92ZM1028.03 957.95L1071.24 957.98L1076.06 976.99L1030.9 976.96L1028.04 957.96L1028.03 957.95ZM1073.16 957.98L1116.38 958.01L1123.24 977.02L1078.07 976.99L1073.17 957.98H1073.16ZM1118.31 958.01L1161.54 958.04L1170.44 977.05L1125.26 977.02L1118.32 958.01H1118.31ZM1163.47 958.04L1206.71 958.07L1217.65 977.09L1172.45 977.06L1163.46 958.05L1163.47 958.04ZM1208.64 958.07L1251.89 958.1L1264.87 977.12L1219.66 977.09L1208.63 958.07H1208.64ZM1253.82 958.1L1297.08 958.13L1312.11 977.15L1266.89 977.12L1253.82 958.1ZM1299.01 958.12L1342.28 958.15L1359.35 977.18L1314.12 977.15L1299 958.13L1299.01 958.12ZM1344.21 958.15L1387.49 958.18L1406.61 977.21L1361.37 977.18L1344.21 958.15ZM1389.41 958.18L1432.7 958.21L1453.87 977.24L1408.62 977.21L1389.41 958.18ZM1434.63 958.21L1477.93 958.24L1501.15 977.28L1455.89 977.25L1434.63 958.22V958.21ZM1479.86 958.24L1523.17 958.27L1548.43 977.31L1503.16 977.28L1479.86 958.24ZM1478.9 957.46L1457.61 940.07L1499.04 940.09L1522.12 957.49L1478.89 957.46H1478.9ZM1456.73 939.34L1437.2 923.38L1476.92 923.4L1498.09 939.36L1456.73 939.34ZM1436.39 922.73L1418.41 908.04L1456.55 908.06L1476.04 922.75L1436.39 922.73ZM1417.67 907.43L1401.06 893.86L1437.74 893.88L1455.74 907.45L1417.67 907.43ZM1400.37 893.3L1384.99 880.73L1420.31 880.75L1436.99 893.32L1400.37 893.3ZM1384.35 880.21L1370.06 868.53H1404.13L1419.62 880.22L1384.35 880.2V880.21ZM1369.47 868.05L1356.16 857.17H1389.06L1403.49 868.06H1369.47V868.05ZM1355.6 856.72L1343.17 846.57H1374.98L1388.45 856.74H1355.6V856.72ZM1342.65 846.15L1331.02 836.65H1361.8L1374.41 846.16H1342.65V846.15ZM1330.53 836.25L1319.62 827.34H1349.45L1361.28 836.26H1330.54L1330.53 836.25ZM1319.17 826.96L1308.92 818.59H1337.85L1348.96 826.97H1319.17V826.96ZM1308.49 818.24L1298.84 810.36H1326.92L1337.38 818.25H1308.49V818.24ZM1307.2 818.24H1278.32L1269.52 810.35H1297.59L1307.21 818.24H1307.2ZM1277.03 818.23H1248.15L1240.19 810.34H1268.26L1277.03 818.23ZM1246.86 818.22H1217.98L1210.87 810.33H1238.94L1246.86 818.22ZM1216.69 818.21H1187.82L1181.56 810.32H1209.62L1216.69 818.21ZM1186.53 818.2H1157.66L1152.24 810.31H1180.3L1186.53 818.2ZM1156.38 818.19H1127.52L1122.95 810.3H1151L1156.38 818.19ZM1126.23 818.18H1097.37L1093.65 810.29H1121.7L1126.23 818.18ZM1096.08 818.17H1067.23L1064.35 810.28H1092.4L1096.09 818.17H1096.08ZM1065.94 818.16H1037.09L1035.06 810.27H1063.1L1065.94 818.16ZM1035.8 818.15H1006.95L1005.76 810.26H1033.8L1035.8 818.15ZM1005.67 818.15H976.83L976.49 810.27H1004.52L1005.67 818.15ZM975.54 818.14H946.7L947.2 810.26H975.23L975.54 818.14ZM945.42 818.13H916.59L917.94 810.25H945.97L945.43 818.13H945.42ZM915.3 818.12H886.47L888.66 810.24H916.68L915.3 818.12ZM885.18 818.11H856.35L859.39 810.23H887.41L885.18 818.11ZM855.07 818.1H826.25L830.13 810.22H858.14L855.07 818.1ZM824.96 818.09H796.14L800.86 810.21H828.87L824.95 818.09H824.96ZM794.86 818.08H766.05L771.62 810.2H799.63L794.87 818.08H794.86ZM764.76 818.07H735.95L742.36 810.19H770.36L764.76 818.07ZM734.67 818.06H705.87L713.12 810.18H741.12L734.67 818.06ZM704.58 818.05H675.78L683.88 810.17H711.87L704.58 818.05ZM674.5 818.05H645.7L654.64 810.17H682.63L674.5 818.05ZM644.42 818.04H615.63L625.41 810.17H653.4L644.43 818.04H644.42ZM614.34 818.03H585.55L596.17 810.16H624.15L614.33 818.03H614.34ZM584.27 818.02H555.49L566.95 810.15H594.93L584.27 818.02ZM583.8 818.37L572.48 826.72H542.8L554.97 818.36H583.79L583.8 818.37ZM571.97 827.09L559.93 835.98H529.31L542.26 827.08H571.97V827.09ZM559.39 836.38L546.55 845.86H514.92L528.73 836.37H559.39V836.38ZM545.98 846.27L532.26 856.39H499.54L514.3 846.25H545.98V846.27ZM531.65 856.85L516.96 867.69H483.09L498.89 856.84H531.65V856.85ZM516.3 868.18L500.53 879.82L465.42 879.8L482.38 868.16H516.3V868.18ZM499.83 880.33L482.86 892.85L446.41 892.83L464.66 880.31L499.83 880.33ZM482.1 893.42L463.78 906.94L425.89 906.92L445.59 893.4L482.1 893.42ZM462.96 907.54L443.13 922.17L403.68 922.15L425.01 907.52L462.96 907.54ZM442.24 922.83L420.71 938.72L379.57 938.7L402.73 922.81L442.25 922.83H442.24ZM419.74 939.44L396.27 956.76L353.28 956.73L378.52 939.41L419.74 939.43V939.44ZM395.21 957.54L369.53 976.49L324.52 976.46L352.14 957.51L395.21 957.54ZM368.36 977.35L340.14 998.18L292.91 998.14L323.26 977.32L368.36 977.35ZM370.38 977.35L415.49 977.38L389.5 998.21L342.26 998.17L370.39 977.34L370.38 977.35ZM417.49 977.39L462.61 977.42L438.84 998.25L391.59 998.21L417.49 977.38V977.39ZM464.62 977.42L509.75 977.45L488.21 998.29L440.95 998.25L464.62 977.41V977.42ZM511.76 977.45L556.9 977.48L537.59 998.32L490.32 998.28L511.76 977.44V977.45ZM558.91 977.48L604.06 977.51L586.98 998.36L539.7 998.32L558.91 977.48ZM606.08 977.52L651.24 977.55L636.4 998.4L589.11 998.36L606.09 977.51L606.08 977.52ZM653.25 977.55L698.42 977.58L685.81 998.44L638.5 998.4L653.25 977.55ZM700.43 977.58L745.61 977.61L735.23 998.47L687.91 998.43L700.43 977.57V977.58ZM747.62 977.62L792.81 977.65L784.67 998.51L737.34 998.47L747.62 977.61V977.62ZM794.83 977.65L840.03 977.68L834.13 998.55L786.79 998.51L794.84 977.65H794.83ZM842.05 977.68L887.26 977.71L883.59 998.58L836.24 998.54L842.05 977.67V977.68ZM889.27 977.71L934.49 977.74L933.06 998.62L885.7 998.58L889.27 977.71ZM936.51 977.75L981.74 977.78L982.55 998.66L935.17 998.62L936.5 977.74L936.51 977.75ZM983.76 977.78L1029 977.81L1032.05 998.69L984.66 998.65L983.75 977.77L983.76 977.78ZM1031.02 977.81L1076.27 977.84L1081.56 998.73L1034.16 998.69L1031.01 977.81H1031.02ZM1078.29 977.84L1123.55 977.87L1131.09 998.76L1083.68 998.72L1078.29 977.83V977.84ZM1125.57 977.88L1170.84 977.91L1180.62 998.81L1133.2 998.77L1125.57 977.88ZM1172.86 977.91L1218.14 977.94L1230.17 998.84L1182.74 998.8L1172.86 977.9V977.91ZM1220.17 977.94L1265.46 977.97L1279.73 998.87L1232.29 998.83L1220.17 977.93V977.94ZM1267.48 977.97L1312.78 978L1329.3 998.91L1281.84 998.87L1267.47 977.97H1267.48ZM1314.81 978.01L1360.12 978.04L1378.89 998.95L1331.42 998.91L1314.81 978V978.01ZM1362.14 978.04L1407.46 978.07L1428.48 998.99L1381 998.95L1362.14 978.04ZM1409.49 978.07L1454.83 978.1L1478.1 999.02L1430.61 998.98L1409.5 978.06L1409.49 978.07ZM1456.85 978.11L1502.2 978.14L1527.72 999.06L1480.22 999.02L1456.86 978.1L1456.85 978.11ZM1504.22 978.14L1549.58 978.17L1577.35 999.1L1529.84 999.06L1504.23 978.14H1504.22ZM1551.6 978.17L1596.97 978.2L1626.99 999.13L1579.47 999.09L1551.6 978.16V978.17ZM1550.45 977.31L1525.1 958.27L1568.42 958.3L1595.73 977.34L1550.45 977.31ZM1524.06 957.49L1500.9 940.09L1542.34 940.11L1567.3 957.51L1524.06 957.48V957.49ZM1499.94 939.37L1478.69 923.41L1518.41 923.43L1541.3 939.39L1499.93 939.37H1499.94ZM1477.81 922.75L1458.25 908.06L1496.39 908.08L1517.46 922.77L1477.8 922.75H1477.81ZM1457.44 907.45L1439.38 893.88L1476.06 893.9L1495.52 907.47L1457.44 907.45ZM1438.63 893.32L1421.89 880.75L1457.22 880.77L1475.25 893.34L1438.63 893.32ZM1421.19 880.23L1405.64 868.55H1439.71L1456.46 880.24L1421.18 880.22L1421.19 880.23ZM1405 868.07L1390.52 857.19H1423.42L1439.02 868.08H1405V868.07ZM1389.92 856.74L1376.4 846.58H1408.21L1422.78 856.75H1389.92V856.74ZM1375.83 846.16L1363.18 836.66H1393.97L1407.6 846.18H1375.83V846.16ZM1362.65 836.26L1350.78 827.35H1380.61L1393.4 836.27H1362.65V836.26ZM1350.28 826.97L1339.13 818.59H1368.06L1380.07 826.98H1350.28V826.97ZM1338.67 818.25L1328.17 810.36H1356.25L1367.56 818.25H1338.67ZM1327.73 810.03L1317.83 802.59H1345.11L1355.78 810.04H1327.73V810.03ZM1326.48 810.03H1298.44L1289.34 802.59H1316.62L1326.49 810.03H1326.48ZM1297.18 810.02H1269.14L1260.84 802.58H1288.11L1297.18 810.02ZM1267.89 810.01H1239.85L1232.35 802.57H1259.62L1267.89 810.01ZM1238.61 810H1210.58L1203.87 802.56H1231.14L1238.61 810ZM1209.32 810H1181.29L1175.38 802.56H1202.64L1209.31 810H1209.32ZM1180.05 809.99H1152.03L1146.92 802.55H1174.18L1180.05 809.99ZM1150.77 809.98H1122.75L1118.44 802.54H1145.7L1150.77 809.98ZM1121.5 809.97H1093.48L1089.97 802.53H1117.22L1121.5 809.97ZM1092.24 809.96H1064.23L1061.52 802.52H1088.77L1092.25 809.96H1092.24ZM1062.98 809.96H1034.97L1033.05 802.52H1060.29L1062.97 809.96H1062.98ZM1033.72 809.95H1005.72L1004.6 802.51H1031.84L1033.72 809.95ZM1004.47 809.94H976.47L976.15 802.5H1003.39L1004.48 809.94H1004.47ZM975.22 809.93H947.22L947.69 802.49H974.92L975.21 809.93H975.22ZM945.98 809.92H917.99L919.26 802.49H946.49L945.98 809.92ZM916.74 809.91H888.75L890.82 802.48H918.04L916.74 809.91ZM887.5 809.91H859.52L862.38 802.48H889.6L887.5 809.91ZM858.27 809.9H830.29L833.95 802.47H861.17L858.27 809.9ZM829.04 809.89H801.06L805.52 802.46H832.73L829.04 809.89ZM799.82 809.88H771.85L777.1 802.45H804.31L799.82 809.88ZM770.6 809.87H742.63L748.68 802.44H775.89L770.61 809.87H770.6ZM741.39 809.86H713.43L720.27 802.43H747.47L741.39 809.86ZM712.17 809.86H684.21L691.85 802.43H719.05L712.18 809.86H712.17ZM682.97 809.85H655.01L663.44 802.42H690.63L682.96 809.85H682.97ZM653.77 809.84H625.82L635.04 802.41H662.23L653.77 809.84ZM624.57 809.83H596.62L606.64 802.4H633.83L624.57 809.83ZM595.37 809.82H567.43L578.24 802.39H605.42L595.37 809.82ZM566.18 809.82H538.24L549.85 802.39H577.03L566.18 809.82ZM565.7 810.14L554.2 818H525.42L537.72 810.13H565.69L565.7 810.14ZM553.69 818.36L541.48 826.71H511.81L524.88 818.35H553.69V818.36ZM540.94 827.08L527.95 835.97H497.33L511.23 827.07H540.94V827.08ZM527.36 836.36L513.51 845.83H481.88L496.7 836.34H527.36V836.36ZM512.89 846.26L498.09 856.38H465.38L481.22 846.25H512.89V846.26ZM497.43 856.84L481.58 867.68H447.72L464.68 856.83H497.43V856.84ZM480.87 868.16L463.86 879.8L428.75 879.78L446.96 868.15H480.87V868.16ZM463.1 880.32L444.79 892.84L408.35 892.82L427.94 880.3L463.1 880.32ZM443.96 893.4L424.2 906.92L386.32 906.9L407.47 893.39L443.97 893.41L443.96 893.4ZM423.32 907.52L401.93 922.15L362.49 922.13L385.38 907.5L423.32 907.52ZM400.96 922.81L377.73 938.7L336.6 938.68L361.46 922.79L400.97 922.81H400.96ZM376.68 939.41L351.36 956.73L308.38 956.7L335.48 939.38L376.69 939.4L376.68 939.41ZM350.22 957.51L322.51 976.46L277.51 976.43L307.16 957.48L350.22 957.51ZM321.26 977.32L290.81 998.14L243.6 998.1L276.18 977.28L321.26 977.31V977.32ZM289.43 999.09L255.82 1022.08L206.16 1022.04L242.12 999.06L289.43 999.1V999.09ZM291.54 999.09L338.86 999.13L307.7 1022.12L258.02 1022.08L291.53 999.09H291.54ZM340.98 999.12L388.31 999.16L359.61 1022.16L309.92 1022.12L340.97 999.13L340.98 999.12ZM390.42 999.16L437.77 999.2L411.53 1022.2L361.83 1022.16L390.42 999.16ZM439.88 999.2L487.24 999.24L463.46 1022.25L413.75 1022.21L439.88 999.21V999.2ZM489.35 999.23L536.72 999.27L515.4 1022.28L465.67 1022.24L489.34 999.23H489.35ZM538.83 999.27L586.21 999.31L567.36 1022.33L517.62 1022.29L538.83 999.28V999.27ZM588.33 999.31L635.72 999.35L619.33 1022.37L569.58 1022.33L588.33 999.31ZM637.83 999.35L685.23 999.39L671.31 1022.42L621.55 1022.38L637.83 999.36V999.35ZM687.35 999.38L734.76 999.42L723.3 1022.45L673.52 1022.41L687.34 999.38H687.35ZM736.88 999.42L784.31 999.46L775.32 1022.5L725.53 1022.46L736.88 999.43V999.42ZM786.42 999.46L833.86 999.5L827.34 1022.54L777.54 1022.5L786.42 999.46ZM835.98 999.49L883.43 999.53L879.38 1022.57L829.57 1022.53L835.98 999.49ZM885.54 999.53L933 999.57L931.42 1022.62L881.59 1022.58L885.53 999.54L885.54 999.53ZM935.12 999.57L982.59 999.61L983.49 1022.66L933.65 1022.62L935.12 999.57ZM984.71 999.6L1032.19 999.64L1035.56 1022.7L985.71 1022.66L984.71 999.61V999.6ZM1034.31 999.64L1081.81 999.68L1087.66 1022.74L1037.8 1022.7L1034.32 999.64H1034.31ZM1083.92 999.68L1131.43 999.72L1139.75 1022.79L1089.87 1022.75L1083.92 999.69V999.68ZM1133.55 999.71L1181.07 999.75L1191.87 1022.82L1141.98 1022.78L1133.55 999.71ZM1183.19 999.75L1230.72 999.79L1244 1022.87L1194.1 1022.83L1183.19 999.76V999.75ZM1232.84 999.79L1280.38 999.83L1296.14 1022.91L1246.22 1022.87L1232.84 999.79ZM1282.5 999.83L1330.05 999.87L1348.29 1022.96L1298.36 1022.92L1282.5 999.84V999.83ZM1332.17 999.86L1379.73 999.9L1400.45 1022.99L1350.51 1022.95L1332.16 999.86H1332.17ZM1381.86 999.9L1429.44 999.94L1452.65 1023.04L1402.7 1023L1381.87 999.91L1381.86 999.9ZM1431.56 999.94L1479.15 999.98L1504.84 1023.08L1454.87 1023.04L1431.56 999.94ZM1481.27 999.97L1528.87 1000.01L1557.05 1023.12L1507.07 1023.08L1481.27 999.98V999.97ZM1530.99 1000.01L1578.6 1000.05L1609.27 1023.16L1559.28 1023.12L1531 1000.01H1530.99ZM1580.72 1000.05L1628.34 1000.09L1661.49 1023.21L1611.49 1023.17L1580.72 1000.06V1000.05ZM1630.47 1000.09L1678.1 1000.13L1713.74 1023.25L1663.72 1023.21L1630.46 1000.09H1630.47ZM1629.11 999.14L1598.99 978.21L1644.37 978.24L1676.65 999.18L1629.11 999.14ZM1597.75 977.34L1570.35 958.3L1613.68 958.33L1643.05 977.38L1597.76 977.35L1597.75 977.34ZM1569.22 957.51L1544.18 940.11L1585.63 940.13L1612.46 957.53L1569.21 957.5L1569.22 957.51ZM1543.15 939.4L1520.18 923.44L1559.91 923.46L1584.52 939.42L1543.14 939.4H1543.15ZM1519.23 922.77L1498.09 908.08L1536.24 908.1L1558.89 922.8L1519.22 922.78L1519.23 922.77ZM1497.22 907.47L1477.7 893.9L1514.39 893.92L1535.31 907.49L1497.22 907.47ZM1476.88 893.34L1458.79 880.77L1494.13 880.79L1513.51 893.36L1476.88 893.34ZM1458.04 880.25L1441.24 868.57H1475.32L1493.33 880.26L1458.05 880.24L1458.04 880.25ZM1440.54 868.08L1424.89 857.2H1457.8L1474.57 868.09H1440.54V868.08ZM1424.24 856.75L1409.63 846.59H1441.45L1457.11 856.76H1424.25L1424.24 856.75ZM1409.01 846.17L1395.33 836.66H1426.12L1440.78 846.18H1409.01V846.17ZM1394.77 836.27L1381.94 827.36H1411.78L1425.52 836.28H1394.77V836.27ZM1381.41 826.98L1369.36 818.6H1398.29L1411.21 826.99H1381.41V826.98ZM1368.85 818.25L1357.5 810.36H1385.59L1397.75 818.26H1368.85V818.25ZM1357.03 810.04L1346.33 802.6H1373.62L1385.09 810.05H1357.04L1357.03 810.04ZM1334.58 795.26L1344.66 802.29H1317.41L1308.06 795.26H1334.59H1334.58ZM1306.87 795.25L1316.19 802.28H1288.94L1280.34 795.25H1306.86H1306.87ZM1279.17 795.25L1287.74 802.28H1260.5L1252.66 795.25H1279.18H1279.17ZM1251.46 795.24L1259.27 802.26H1232.03L1224.94 795.23H1251.46V795.24ZM1223.77 795.23L1230.83 802.25H1203.6L1197.27 795.22H1223.78L1223.77 795.23ZM1196.07 795.23L1202.37 802.25H1175.14L1169.56 795.22H1196.07V795.23ZM1168.38 795.22L1173.93 802.24H1146.7L1141.87 795.21H1168.38V795.22ZM1140.69 795.21L1145.48 802.23H1118.26L1114.19 795.2H1140.69V795.21ZM1113.01 795.21L1117.05 802.23H1089.83L1086.51 795.2H1113.01V795.21ZM1085.33 795.2L1088.62 802.22H1061.4L1058.84 795.19H1085.33V795.2ZM1057.65 795.19L1060.18 802.21H1032.97L1031.16 795.18H1057.65V795.19ZM1029.98 795.19L1031.76 802.21H1004.55L1003.49 795.18H1029.98V795.19ZM1002.31 795.18L1003.34 802.2H976.14L975.84 795.17H1002.32L1002.31 795.18ZM974.65 795.17L974.92 802.19H947.72L948.17 795.17H974.65ZM946.99 795.17L946.51 802.19H919.31L920.51 795.17H946.99ZM919.33 795.16L918.1 802.18H890.91L892.86 795.16H919.33ZM891.68 795.15L889.69 802.17H862.5L865.21 795.15H891.68ZM864.03 795.15L861.29 802.17H834.1L837.56 795.15H864.03ZM836.38 795.14L832.89 802.15H805.71L809.92 795.13H836.38V795.14ZM808.74 795.13L804.5 802.14H777.32L782.28 795.12H808.74V795.13ZM781.1 795.13L776.11 802.14H748.94L754.65 795.12H781.1V795.13ZM753.46 795.12L747.72 802.13H720.55L727.01 795.11H753.46V795.12ZM725.83 795.11L719.33 802.12H692.16L699.37 795.1H725.82L725.83 795.11ZM698.21 795.1L690.96 802.11H663.8L671.76 795.09H698.2L698.21 795.1ZM670.58 795.1L662.58 802.11H635.42L644.14 795.09H670.58V795.1ZM642.96 795.09L634.21 802.1H607.05L616.52 795.08H642.96V795.09ZM615.35 795.08L605.85 802.09H578.7L588.92 795.07H615.35V795.08ZM587.73 795.08L577.48 802.09H550.33L561.3 795.07H587.73V795.08ZM533.7 795.06H560.13L549.13 802.07H521.99L533.71 795.06H533.7ZM521.46 802.38H548.64L537 809.8H509.06L521.46 802.38ZM508.51 810.13H536.48L524.14 818H495.37L508.52 810.13H508.51ZM494.78 818.34H523.59L510.48 826.7H480.81L494.77 818.34H494.78ZM480.2 827.06H509.9L495.95 835.96H465.34L480.2 827.06ZM464.68 836.34H495.33L480.46 845.82H448.84L464.68 836.34ZM448.14 846.24H479.81L463.93 856.37H431.23L448.15 846.24H448.14ZM430.46 856.81H463.21L446.2 867.66H412.34L430.46 856.81ZM411.54 868.13H445.45L427.19 879.78L392.09 879.76L411.54 868.13ZM391.22 880.28L426.37 880.3L406.72 892.82L370.29 892.8L391.22 880.28ZM369.35 893.36L405.84 893.38L384.63 906.89L346.76 906.87L369.35 893.36ZM345.74 907.48L383.68 907.5L360.72 922.13L321.29 922.11L345.74 907.48ZM320.19 922.76L359.69 922.78L334.76 938.67L293.63 938.65L320.19 922.77V922.76ZM292.44 939.36L333.64 939.38L306.47 956.7L263.5 956.67L292.45 939.36H292.44ZM262.19 957.46L305.24 957.49L275.51 976.44L230.52 976.41L262.19 957.47V957.46ZM229.09 977.26L274.16 977.29L241.49 998.11L194.29 998.07L229.09 977.26ZM192.71 999.01L240.01 999.05L203.94 1022.03L154.29 1021.99L192.71 999.01ZM109.92 1048.53L152.55 1023.03L202.31 1023.07L162.29 1048.57L109.93 1048.52L109.92 1048.53ZM164.62 1048.58L204.53 1023.08L254.3 1023.12L217 1048.63L164.62 1048.58ZM219.33 1048.63L256.51 1023.12L306.29 1023.16L271.72 1048.67L219.33 1048.62V1048.63ZM274.06 1048.68L308.52 1023.16L358.31 1023.2L326.46 1048.72L274.05 1048.67L274.06 1048.68ZM328.8 1048.72L360.53 1023.2L410.34 1023.24L381.22 1048.77L328.8 1048.72ZM383.56 1048.77L412.56 1023.24L462.38 1023.28L435.99 1048.81L383.56 1048.76V1048.77ZM438.33 1048.82L464.6 1023.29L514.43 1023.33L490.77 1048.87L438.32 1048.82H438.33ZM493.12 1048.86L516.66 1023.32L566.51 1023.36L545.59 1048.9L493.13 1048.85L493.12 1048.86ZM547.92 1048.91L568.73 1023.37L618.59 1023.41L600.4 1048.96L547.92 1048.91ZM602.74 1048.96L620.81 1023.41L670.68 1023.45L655.23 1049L602.74 1048.95V1048.96ZM657.57 1049.01L672.91 1023.46L722.79 1023.5L710.08 1049.06L657.58 1049.01H657.57ZM712.41 1049.06L725.01 1023.5L774.91 1023.54L764.93 1049.11L712.41 1049.06ZM767.28 1049.1L777.14 1023.53L827.05 1023.57L819.81 1049.14L767.28 1049.09V1049.1ZM822.15 1049.15L829.27 1023.58L879.19 1023.62L874.7 1049.2L822.15 1049.15ZM877.04 1049.2L881.42 1023.62L931.35 1023.66L929.6 1049.24L877.04 1049.19V1049.2ZM931.95 1049.25L933.58 1023.67L983.53 1023.71L984.52 1049.3L931.95 1049.25ZM986.87 1049.29L985.76 1023.7L1035.72 1023.74L1039.46 1049.33L986.87 1049.28V1049.29ZM1041.8 1049.34L1037.94 1023.75L1087.91 1023.79L1094.4 1049.39L1041.8 1049.34ZM1096.75 1049.39L1090.15 1023.79L1140.13 1023.83L1149.37 1049.44L1096.75 1049.39ZM1151.71 1049.44L1142.36 1023.83L1192.36 1023.87L1204.35 1049.48L1151.72 1049.43L1151.71 1049.44ZM1206.69 1049.48L1194.59 1023.87L1244.6 1023.91L1259.34 1049.53L1206.69 1049.48ZM1261.69 1049.53L1246.83 1023.91L1296.85 1023.95L1314.34 1049.57L1261.68 1049.52L1261.69 1049.53ZM1316.69 1049.58L1299.08 1023.96L1349.12 1024L1369.37 1049.63L1316.7 1049.58H1316.69ZM1371.72 1049.63L1351.36 1024L1401.41 1024.04L1424.41 1049.67L1371.72 1049.62V1049.63ZM1426.75 1049.67L1403.63 1024.04L1453.69 1024.08L1479.45 1049.72L1426.75 1049.67ZM1481.81 1049.72L1455.93 1024.08L1506 1024.12L1534.52 1049.76L1481.8 1049.71L1481.81 1049.72ZM1536.87 1049.77L1508.23 1024.13L1558.32 1024.17L1589.6 1049.82L1536.87 1049.77ZM1591.96 1049.82L1560.56 1024.17L1610.66 1024.21L1644.7 1049.87L1591.96 1049.82ZM1647.05 1049.87L1612.89 1024.21L1663 1024.25L1699.8 1049.91L1647.04 1049.86L1647.05 1049.87ZM1702.16 1049.91L1665.24 1024.25L1715.37 1024.29L1754.94 1049.96L1702.17 1049.91H1702.16ZM1810.08 1050.01L1757.29 1049.96L1717.6 1024.29L1767.74 1024.33L1810.08 1050V1050.01ZM1766.01 1023.28L1715.98 1023.24L1680.23 1000.12L1727.88 1000.16L1766.02 1023.29L1766.01 1023.28ZM1726.31 999.21L1678.76 999.17L1646.39 978.23L1691.78 978.26L1726.31 999.2V999.21ZM1690.36 977.41L1645.06 977.38L1615.61 958.33L1658.95 958.36L1690.37 977.41H1690.36ZM1657.65 957.57L1614.4 957.54L1587.49 940.14L1628.95 940.16L1657.65 957.57ZM1627.76 939.45L1586.37 939.43L1561.69 923.47L1601.43 923.49L1627.76 939.46V939.45ZM1600.34 922.82L1560.67 922.8L1537.95 908.1L1576.11 908.12L1600.35 922.82H1600.34ZM1575.1 907.51L1537 907.49L1516.01 893.92L1552.71 893.94L1575.09 907.51H1575.1ZM1551.79 893.38L1515.15 893.36L1495.71 880.79L1531.05 880.81L1551.79 893.38ZM1530.19 880.28L1494.9 880.26L1476.84 868.58H1510.93L1530.19 880.28ZM1510.13 868.11H1476.09L1459.27 857.22H1492.18L1510.12 868.11H1510.13ZM1491.43 856.78H1458.56L1442.85 846.61H1474.67L1491.42 856.78H1491.43ZM1473.98 846.19H1442.2L1427.5 836.67H1458.3L1473.98 846.19ZM1457.65 836.29H1426.89L1413.11 827.36H1442.95L1457.65 836.29ZM1442.33 827H1412.53L1399.58 818.61H1428.52L1442.34 827H1442.33ZM1427.94 818.27H1399.04L1386.84 810.37H1414.93L1427.94 818.27ZM1414.39 810.05H1386.33L1374.83 802.6H1402.12L1414.39 810.05ZM1401.6 802.3H1374.34L1363.47 795.27H1390L1401.59 802.3H1401.6Z"
        fill="url(#paint2_radial_7037_1286)"
      />
    </g>
  </g>
  <defs>
    <filter
      id="filter0_i_7037_1286"
      x="0"
      y="0"
      width="1920"
      height="1080.49"
      filterUnits="userSpaceOnUse"
      color-interpolation-filters="sRGB"
    >
      <feFlood flood-opacity="0" result="BackgroundImageFix" />
      <feBlend
        mode="normal"
        in="SourceGraphic"
        in2="BackgroundImageFix"
        result="shape"
      />
      <feColorMatrix
        in="SourceAlpha"
        type="matrix"
        values="0 0 0 0 0 0 0 0 0 0 0 0 0 0 0 0 0 0 127 0"
        result="hardAlpha"
      />
      <feOffset />
      <feGaussianBlur stdDeviation="64.35" />
      <feComposite in2="hardAlpha" operator="arithmetic" k2="-1" k3="1" />
      <feColorMatrix
        type="matrix"
        values="0 0 0 0 0 0 0 0 0 0 0 0 0 0 0 0 0 0 0.96 0"
      />
      <feBlend
        mode="normal"
        in2="shape"
        result="effect1_innerShadow_7037_1286"
      />
    </filter>
    <radialGradient
      id="paint0_radial_7037_1286"
      cx="0"
      cy="0"
      r="1"
      gradientUnits="userSpaceOnUse"
      gradientTransform="translate(960.501 703) rotate(90.0761) scale(377 884.727)"
    >
      <stop stop-color="#09080C" />
      <stop offset="1" stop-color="#121019" />
    </radialGradient>
    <radialGradient
      id="paint1_radial_7037_1286"
      cx="0"
      cy="0"
      r="1"
      gradientUnits="userSpaceOnUse"
      gradientTransform="translate(941 -3.92007e-06) rotate(90) scale(292 713.655)"
    >
      <stop stop-color="#242031" />
      <stop offset="1" stop-color="#1B1825" stop-opacity="0.24" />
    </radialGradient>
    <radialGradient
      id="paint2_radial_7037_1286"
      cx="0"
      cy="0"
      r="1"
      gradientUnits="userSpaceOnUse"
      gradientTransform="translate(941 1080.49) rotate(-90) scale(292 713.655)"
    >
      <stop stop-color="#242031" />
      <stop offset="1" stop-color="#1B1825" stop-opacity="0.24" />
    </radialGradient>
    <clipPath id="clip0_7037_1286">
      <rect
        width="1816.47"
        height="292.49"
        fill="white"
        transform="matrix(1 0 0 -1 52 292.49)"
      />
    </clipPath>
    <clipPath id="clip1_7037_1286">
      <rect
        width="1816.47"
        height="292.49"
        fill="white"
        transform="translate(52 788)"
      />
    </clipPath>
  </defs>
</svg>